<svg width="208" height="163" viewBox="0 0 208 163" fill="none" xmlns="http://www.w3.org/2000/svg">
<path d="M4.45998 144.021C12.2621 144.369 20.0641 144.542 27.8662 144.527C28.1675 144.527 28.1675 144.053 27.8662 144.053C20.0641 144.069 12.2621 143.895 4.45998 143.548C4.15868 143.532 4.15868 144.006 4.45998 144.021Z" fill="#DFE6E9"/>
<path d="M28.342 132.273C29.5631 136.836 30.7049 141.432 31.7515 146.043C31.8149 146.343 32.2748 146.216 32.2114 145.916C31.1489 141.305 30.023 136.71 28.8019 132.146C28.7226 131.862 28.2627 131.989 28.342 132.273Z" fill="#DFE6E9"/>
<path d="M49.5915 132.62C49.1475 136.963 48.7035 141.321 48.2753 145.664C48.2436 145.964 48.7193 145.964 48.7511 145.664C49.1951 141.321 49.6391 136.963 50.0673 132.62C50.0831 132.32 49.6074 132.32 49.5915 132.62Z" fill="#DFE6E9"/>
<path d="M31.8783 146.469C34.6535 146.959 37.4603 147.18 40.283 147.101C42.9789 147.022 45.9284 146.816 48.4974 145.964C48.7828 145.869 48.656 145.411 48.3705 145.506C45.8174 146.343 42.9471 146.548 40.283 146.627C37.5079 146.706 34.7328 146.485 32.0052 146.011C31.7039 145.948 31.577 146.406 31.8783 146.469Z" fill="#DFE6E9"/>
<path d="M28.5323 132.431C31.8149 133.347 35.3829 133.362 38.7765 133.378C42.4238 133.41 46.0711 133.204 49.6867 132.794C49.988 132.762 49.988 132.289 49.6867 132.32C46.1662 132.731 42.6299 132.92 39.0936 132.904C35.6525 132.889 32.0051 132.889 28.6591 131.973C28.3578 131.894 28.231 132.352 28.5323 132.431Z" fill="#DFE6E9"/>
<path d="M27.1685 130.804C27.2002 131.104 27.2319 131.42 27.2637 131.72C27.2795 131.91 27.2795 132.146 27.3588 132.32C27.5491 132.731 28.1834 132.589 28.5481 132.589C28.8494 132.589 28.8494 132.115 28.5481 132.115C28.3737 132.115 28.1993 132.115 28.009 132.115C27.7711 132.115 27.7711 132.067 27.7552 131.831C27.7235 131.483 27.6918 131.152 27.6601 130.804C27.6125 130.504 27.1368 130.488 27.1685 130.804Z" fill="#DFE6E9"/>
<path d="M27.4856 131.057C31.4501 131.515 35.4304 131.736 39.4266 131.767C41.393 131.783 43.3594 131.752 45.3416 131.688C46.3248 131.657 47.308 131.61 48.2912 131.562C48.751 131.546 49.3853 131.388 49.8452 131.483C50.4002 131.578 50.3685 132.052 50.432 132.541C50.4795 132.446 50.543 132.352 50.5905 132.257C50.3844 132.257 50.1782 132.257 49.9721 132.257C49.6708 132.194 49.5439 132.652 49.8452 132.715C50.1624 132.778 50.4003 132.778 50.7016 132.715C50.8443 132.683 50.8918 132.541 50.8601 132.431C50.7808 131.878 50.8443 131.183 50.1782 131.041C49.7818 130.946 49.2902 131.057 48.8779 131.073C48.3546 131.104 47.8471 131.12 47.3238 131.152C45.1037 131.246 42.8678 131.31 40.6318 131.31C36.2233 131.31 31.8307 131.104 27.4539 130.583C27.1843 130.552 27.1843 131.025 27.4856 131.057Z" fill="#DFE6E9"/>
<path d="M30.9269 142.537C32.1955 144.195 33.6862 145.632 35.3671 146.864C35.6208 147.037 35.8587 146.627 35.605 146.453C33.9875 145.269 32.5444 143.879 31.3233 142.284C31.1489 142.047 30.7366 142.284 30.9269 142.537Z" fill="#DFE6E9"/>
<path d="M29.8643 137.721C32.3381 141.274 35.3828 144.385 38.9033 146.927C39.157 147.101 39.3949 146.69 39.1412 146.516C35.7 144.021 32.7029 140.958 30.2766 137.484C30.1022 137.231 29.6899 137.468 29.8643 137.721Z" fill="#DFE6E9"/>
<path d="M28.897 133.489C33.1787 138.542 37.936 143.263 43.6131 146.769C43.8669 146.927 44.1206 146.516 43.851 146.359C38.2056 142.884 33.48 138.195 29.23 133.157C29.0398 132.92 28.7067 133.268 28.897 133.489Z" fill="#DFE6E9"/>
<path d="M33.4482 133.22C37.5236 137.942 42.0431 142.426 47.086 146.122C47.3397 146.295 47.5775 145.885 47.3238 145.711C42.3127 142.048 37.8249 137.563 33.7812 132.889C33.575 132.652 33.242 132.983 33.4482 133.22Z" fill="#DFE6E9"/>
<path d="M38.6497 133.552C41.409 136.915 44.5806 139.916 48.101 142.49C48.3547 142.663 48.5926 142.253 48.3389 142.079C44.8502 139.537 41.7103 136.552 38.9827 133.22C38.7924 132.983 38.4594 133.315 38.6497 133.552Z" fill="#DFE6E9"/>
<path d="M42.8993 133.378C44.6754 135.368 46.7052 137.073 48.9571 138.51C49.2108 138.668 49.4487 138.258 49.1949 138.1C46.9748 136.694 44.9767 134.989 43.2324 133.047C43.0262 132.81 42.6932 133.141 42.8993 133.378Z" fill="#DFE6E9"/>
<path d="M20.9523 107.354C21.9831 109.518 22.6808 111.792 23.0773 114.16C23.0931 114.271 23.2041 114.334 23.2993 114.334C23.3944 114.334 23.9019 114.318 23.9336 114.476C23.9495 114.539 23.6323 114.902 23.6006 114.981C23.5054 115.234 23.5054 115.534 23.6006 115.787C23.7275 116.087 23.9653 116.292 24.2508 116.403C24.3459 116.45 24.4569 116.466 24.5679 116.482C24.6631 116.497 24.7582 116.497 24.8534 116.482C24.9802 116.466 24.9644 116.482 24.8216 116.545C24.6631 116.782 24.4411 116.813 24.3776 117.161C24.3301 117.492 24.4886 117.808 24.6155 118.092C25.1388 119.198 25.4401 120.366 25.8683 121.519C27.3431 125.435 30.1658 128.672 33.3532 131.341C33.5911 131.531 33.9241 131.199 33.6862 131.009C30.4036 128.262 27.4858 124.898 26.1061 120.777C25.9317 120.24 25.7731 119.703 25.5828 119.182C25.4242 118.724 25.1229 118.25 24.9802 117.792C24.8216 117.54 24.8375 117.255 25.0437 116.971C25.1071 116.924 25.1705 116.876 25.234 116.829C25.2815 116.75 25.3767 116.703 25.4242 116.608C25.4877 116.434 25.4401 116.276 25.3132 116.15C25.1071 115.945 24.7899 116.055 24.5203 115.976C23.4896 115.676 24.3301 114.981 24.4093 114.476C24.5203 113.813 23.6957 113.892 23.2517 113.86C23.331 113.923 23.4103 113.971 23.4737 114.034C23.0773 111.634 22.3478 109.312 21.3012 107.117C21.2378 106.833 20.8255 107.07 20.9523 107.354Z" fill="#DFE6E9"/>
<path d="M21.1266 107.244C26.2804 108.618 30.7999 112.107 34.0825 116.245C37.5712 120.635 39.7438 125.909 40.9173 131.357C40.9807 131.657 41.4406 131.531 41.3771 131.231C40.1878 125.704 37.9677 120.366 34.4314 115.913C31.1012 111.728 26.5024 108.191 21.2693 106.802C20.9522 106.707 20.8253 107.165 21.1266 107.244Z" fill="#DFE6E9"/>
<path d="M22.9978 109.202C29.3092 115.313 34.1776 122.814 37.1748 131.073C37.2858 131.357 37.7456 131.231 37.6346 130.946C34.6058 122.624 29.7057 115.045 23.3308 108.87C23.1247 108.649 22.7758 108.981 22.9978 109.202Z" fill="#DFE6E9"/>
<path d="M25.8047 119.134C27.1367 119.277 28.4371 119.577 29.674 120.066C30.8792 120.54 32.1954 121.14 32.9566 122.23C33.131 122.482 33.5433 122.245 33.3689 121.993C32.6077 120.903 31.4183 120.287 30.2131 119.782C28.8018 119.182 27.327 118.819 25.7888 118.661C25.5034 118.629 25.5034 119.103 25.8047 119.134Z" fill="#DFE6E9"/>
<path d="M28.1676 110.481C28.1517 112.297 28.453 114.081 29.0398 115.803C29.1349 116.087 29.5948 115.961 29.4996 115.676C28.9288 114.002 28.6433 112.265 28.6433 110.481C28.6433 110.181 28.1676 110.181 28.1676 110.481Z" fill="#DFE6E9"/>
<path d="M36.8735 119.071C37.6505 116.182 40.2353 114.46 42.4396 112.692C44.7865 110.813 47.0542 108.807 49.2109 106.723C49.084 106.644 48.9413 106.565 48.8144 106.486C48.1008 108.397 47.9581 110.402 47.9898 112.423C48.0215 114.445 48.4814 116.766 47.8313 118.724C47.9105 118.661 47.9898 118.613 48.0533 118.55C47.5458 118.582 47.0384 118.629 46.5309 118.661C46.3723 118.677 46.2137 118.866 46.3248 119.024C46.6895 119.514 47.1176 119.671 47.1018 120.398C47.1018 120.903 46.9749 121.487 46.8005 121.961C46.6261 122.451 46.1662 122.782 46.0076 123.24C45.8807 123.651 46.1979 123.998 46.1979 124.409C46.2138 125.088 45.7222 125.656 45.3733 126.193C45.0403 126.699 44.739 127.22 44.4694 127.757C43.9302 128.815 43.5021 129.904 43.1849 131.041C43.1056 131.341 43.5655 131.467 43.6448 131.167C44.0412 129.762 44.6121 128.404 45.3574 127.141C45.8649 126.288 46.8163 125.293 46.7053 124.219C46.6578 123.793 46.4358 123.667 46.6261 123.177C46.6419 123.161 46.9274 122.782 46.9432 122.751C47.2445 122.261 47.3872 121.709 47.4824 121.156C47.5458 120.745 47.6727 120.24 47.6092 119.829C47.5141 119.245 47.0701 119.198 46.7371 118.756C46.6736 118.882 46.5943 118.992 46.5309 119.119C47.0384 119.087 47.5458 119.04 48.0533 119.008C48.1643 118.992 48.2436 118.945 48.2753 118.835C48.8779 117.003 48.5131 114.871 48.4497 112.976C48.3863 110.813 48.4656 108.633 49.2426 106.581C49.3378 106.344 49.0047 106.202 48.8462 106.344C46.5468 108.57 44.1364 110.702 41.615 112.692C39.4583 114.397 37.1272 116.134 36.3819 118.914C36.3343 119.245 36.7942 119.371 36.8735 119.071Z" fill="#DFE6E9"/>
<path d="M47.451 108.775C45.8969 111.476 44.3111 114.144 42.8205 116.876C41.425 119.403 40.1881 122.024 39.6013 124.851C39.5379 125.151 39.9978 125.277 40.0612 124.977C40.6638 122.087 41.9483 119.434 43.3755 116.861C44.8344 114.223 46.3726 111.634 47.8633 109.012C48.006 108.76 47.5937 108.507 47.451 108.775Z" fill="#DFE6E9"/>
<path d="M42.7728 113.165C42.9789 114.066 43.0741 114.966 43.0424 115.882C43.0265 116.182 43.5022 116.182 43.5181 115.882C43.5498 114.918 43.4547 113.987 43.2327 113.039C43.1534 112.739 42.7093 112.865 42.7728 113.165Z" fill="#DFE6E9"/>
<path d="M45.3575 110.149C45.532 110.828 45.5637 111.492 45.4844 112.171C45.4527 112.471 45.9284 112.471 45.9601 112.171C46.0553 111.444 46.0077 110.734 45.8174 110.023C45.7381 109.739 45.2782 109.865 45.3575 110.149Z" fill="#DFE6E9"/>
<path d="M45.4686 113.292C46.4042 112.739 47.3715 112.25 48.3706 111.839C48.656 111.729 48.5292 111.271 48.2437 111.381C47.1971 111.807 46.198 112.313 45.2149 112.881C44.9611 113.039 45.199 113.45 45.4686 113.292Z" fill="#DFE6E9"/>
<path d="M41.3773 121.219C41.9799 120.714 42.5825 120.224 43.2009 119.75C43.8511 119.245 44.5647 118.566 45.3576 118.25C45.643 118.14 45.5162 117.682 45.2307 117.792C44.5171 118.061 43.9304 118.582 43.3278 119.056C42.5507 119.656 41.7896 120.256 41.0442 120.887C40.8064 121.077 41.1394 121.408 41.3773 121.219Z" fill="#DFE6E9"/>
<path d="M23.0138 112.36C24.1239 112.471 25.2339 112.581 26.344 112.676C26.6453 112.708 26.6453 112.234 26.344 112.202C25.2339 112.092 24.1239 111.981 23.0138 111.886C22.7125 111.855 22.7125 112.329 23.0138 112.36Z" fill="#DFE6E9"/>
<path d="M52.1131 143.863C71.9831 143.863 91.8371 143.863 111.707 143.863C117.305 143.863 122.903 143.863 128.501 143.863C128.802 143.863 128.802 143.39 128.501 143.39C108.631 143.39 88.7766 143.39 68.9066 143.39C63.3088 143.39 57.7109 143.39 52.1131 143.39C51.796 143.39 51.796 143.863 52.1131 143.863Z" fill="#DFE6E9"/>
<path d="M119.319 105.175C119.319 107.481 119.319 109.786 119.319 112.092C119.319 112.392 119.795 112.392 119.795 112.092C119.795 109.786 119.795 107.481 119.795 105.175C119.795 104.875 119.319 104.875 119.319 105.175Z" fill="#DFE6E9"/>
<path d="M108.377 113.15C116.068 113.15 123.759 113.15 131.45 113.15C131.751 113.15 131.751 112.676 131.45 112.676C123.759 112.676 116.068 112.676 108.377 112.676C108.076 112.676 108.06 113.15 108.377 113.15Z" fill="#DFE6E9"/>
<path d="M113.546 113.276C113.546 115.266 113.546 117.255 113.546 119.261C113.546 119.561 114.022 119.561 114.022 119.261C114.022 117.271 114.022 115.282 114.022 113.276C114.022 112.96 113.546 112.96 113.546 113.276Z" fill="#DFE6E9"/>
<path d="M125.44 113.15C125.44 114.902 125.44 116.671 125.44 118.424C125.44 118.724 125.916 118.724 125.916 118.424C125.916 116.671 125.916 114.902 125.916 113.15C125.916 112.85 125.44 112.85 125.44 113.15Z" fill="#DFE6E9"/>
<path d="M117.907 119.719C123.791 119.719 129.674 119.719 135.557 119.719C135.858 119.719 135.858 119.245 135.557 119.245C129.674 119.245 123.791 119.245 117.907 119.245C117.606 119.245 117.606 119.719 117.907 119.719Z" fill="#DFE6E9"/>
<path d="M104.603 148.443C117.59 148.443 130.578 148.443 143.565 148.443C143.867 148.443 143.867 147.969 143.565 147.969C130.578 147.969 117.59 147.969 104.603 147.969C104.301 147.969 104.301 148.443 104.603 148.443Z" fill="#DFE6E9"/>
<path d="M158.313 144.353C171.063 144.353 183.828 144.353 196.578 144.353C200.162 144.353 203.746 144.353 207.33 144.353C207.631 144.353 207.631 143.879 207.33 143.879C194.58 143.879 181.815 143.879 169.065 143.879C165.481 143.879 161.897 143.879 158.313 143.879C158.012 143.879 158.012 144.353 158.313 144.353Z" fill="#DFE6E9"/>
<path d="M0.225975 152.438C13.2929 152.438 26.3756 152.438 39.4425 152.438C39.7438 152.438 39.7438 151.964 39.4425 151.964C26.3756 151.964 13.2929 151.964 0.225975 151.964C-0.075325 151.964 -0.075325 152.438 0.225975 152.438Z" fill="#DFE6E9"/>
<path d="M26.5819 157.175C37.2542 157.175 47.9266 157.175 58.5989 157.175C58.9002 157.175 58.9002 156.702 58.5989 156.702C47.9266 156.702 37.2542 156.702 26.5819 156.702C26.2647 156.702 26.2647 157.175 26.5819 157.175Z" fill="#DFE6E9"/>
<path d="M188.824 22.1609C188.824 17.7552 188.824 13.3652 188.824 8.95948C188.824 8.65944 188.348 8.65944 188.348 8.95948C188.348 13.3652 188.348 17.7552 188.348 22.1609C188.348 22.4609 188.824 22.4609 188.824 22.1609Z" fill="#DFE6E9"/>
<path d="M188.745 8.86474C194.469 8.86474 200.194 8.86474 205.919 8.86474C206.22 8.86474 206.22 8.39101 205.919 8.39101C200.194 8.39101 194.469 8.39101 188.745 8.39101C188.443 8.39101 188.443 8.86474 188.745 8.86474Z" fill="#DFE6E9"/>
<path d="M205.681 8.65943C205.649 13.1283 205.617 17.5972 205.57 22.0661C205.57 22.3662 206.046 22.3662 206.046 22.0661C206.077 17.5972 206.109 13.1283 206.157 8.65943C206.157 8.3594 205.681 8.3594 205.681 8.65943Z" fill="#DFE6E9"/>
<path d="M188.824 22.3977C194.469 22.3977 200.115 22.3977 205.76 22.3977C206.061 22.3977 206.061 21.924 205.76 21.924C200.115 21.924 194.469 21.924 188.824 21.924C188.523 21.924 188.523 22.3977 188.824 22.3977Z" fill="#DFE6E9"/>
<path d="M189.284 9.87538C189.284 13.5863 189.284 17.2814 189.284 20.9924C189.284 21.2924 189.76 21.2924 189.76 20.9924C189.76 17.2814 189.76 13.5863 189.76 9.87538C189.76 9.57535 189.284 9.57535 189.284 9.87538Z" fill="#DFE6E9"/>
<path d="M189.633 10.1122C194.644 10.1122 199.639 10.1122 204.65 10.1122C204.951 10.1122 204.951 9.63848 204.65 9.63848C199.639 9.63848 194.644 9.63848 189.633 9.63848C189.315 9.63848 189.315 10.1122 189.633 10.1122Z" fill="#DFE6E9"/>
<path d="M204.396 9.98591C204.38 13.6179 204.364 17.2499 204.349 20.8976C204.349 21.1976 204.824 21.1976 204.824 20.8976C204.84 17.2656 204.856 13.6337 204.872 9.98591C204.872 9.68588 204.396 9.68588 204.396 9.98591Z" fill="#DFE6E9"/>
<path d="M189.728 21.2924C194.659 21.2924 199.591 21.2924 204.523 21.2924C204.824 21.2924 204.824 20.8187 204.523 20.8187C199.591 20.8187 194.659 20.8187 189.728 20.8187C189.426 20.8187 189.426 21.2924 189.728 21.2924Z" fill="#DFE6E9"/>
<path d="M189.633 18.0236C191.456 17.392 193.375 17.9605 195.151 18.4816C196.959 19.0027 198.735 19.6343 200.464 20.3607C200.749 20.4713 200.876 20.0133 200.59 19.9028C198.672 19.0974 196.705 18.4184 194.707 17.8657C193.01 17.4078 191.218 16.9656 189.506 17.5657C189.22 17.6604 189.347 18.1184 189.633 18.0236Z" fill="#DFE6E9"/>
<path d="M195.659 18.5605C198.656 18.3868 201.463 17.1867 204.428 16.8551C204.729 16.8235 204.729 16.3497 204.428 16.3813C201.463 16.7129 198.656 17.8973 195.659 18.0868C195.342 18.1183 195.342 18.5921 195.659 18.5605Z" fill="#DFE6E9"/>
<path d="M201.336 12.7809C200.67 12.402 201.272 11.1544 201.986 11.4545C202.367 11.6124 202.446 12.0703 202.24 12.402C202.018 12.7651 201.558 12.8283 201.177 12.7178C200.876 12.6388 200.749 13.0968 201.05 13.1757C201.685 13.3494 202.398 13.1599 202.715 12.5441C203.001 11.9914 202.779 11.265 202.176 11.0123C200.939 10.4912 199.924 12.5441 201.098 13.1915C201.352 13.3336 201.605 12.9231 201.336 12.7809Z" fill="#DFE6E9"/>
<path d="M196.483 8.54893C196.499 8.28048 196.515 8.01203 196.594 7.75937C196.658 7.55408 196.816 7.06456 197.054 6.96981C197.482 6.8119 197.641 8.31206 197.672 8.5963C197.704 8.89633 198.18 8.89633 198.148 8.5963C198.101 8.04361 197.974 6.30658 197.086 6.43291C196.705 6.48028 196.436 6.90664 196.293 7.22247C196.102 7.63304 196.039 8.09098 196.023 8.53314C196.007 8.84896 196.483 8.84896 196.483 8.54893Z" fill="#DFE6E9"/>
<path d="M199.147 82.2148C199.147 84.1097 199.147 86.0204 199.147 87.9154C199.147 88.2154 199.623 88.2154 199.623 87.9154C199.623 86.0204 199.623 84.1097 199.623 82.2148C199.623 81.9147 199.147 81.9147 199.147 82.2148Z" fill="#DFE6E9"/>
<path d="M193.391 88.6102C197.704 88.6102 202.033 88.6102 206.347 88.6102C206.648 88.6102 206.648 88.1365 206.347 88.1365C202.033 88.1365 197.704 88.1365 193.391 88.1365C193.09 88.1365 193.09 88.6102 193.391 88.6102Z" fill="#DFE6E9"/>
<path d="M195.215 88.7523C195.215 89.6524 195.215 90.5367 195.215 91.4368C195.215 91.7368 195.69 91.7368 195.69 91.4368C195.69 90.5367 195.69 89.6524 195.69 88.7523C195.69 88.4522 195.215 88.4522 195.215 88.7523Z" fill="#DFE6E9"/>
<path d="M202.145 88.8944C202.145 89.9524 202.145 91.0262 202.145 92.0842C202.145 92.3843 202.62 92.3843 202.62 92.0842C202.62 91.0262 202.62 89.9524 202.62 88.8944C202.62 88.5786 202.145 88.5786 202.145 88.8944Z" fill="#DFE6E9"/>
<path d="M198.783 92.7001C201.78 92.7001 204.777 92.7001 207.774 92.7001C208.075 92.7001 208.075 92.2263 207.774 92.2263C204.777 92.2263 201.78 92.2263 198.783 92.2263C198.481 92.2263 198.481 92.7001 198.783 92.7001Z" fill="#DFE6E9"/>
<path d="M89.0617 138.873C94.057 135.51 96.5625 133.82 97.2127 133.615C98.7985 133.11 103.936 131.483 108.424 134.215C111.643 136.173 114.609 140.421 113.372 143.263C112.484 145.285 109.772 145.916 107.314 146.501C103.683 147.353 100.575 146.88 98.8302 146.469C98.1483 147.132 97.0541 148.017 95.5159 148.601C92.9628 149.58 90.0132 149.406 89.8705 148.822C89.8071 148.522 90.4414 147.938 93.5178 146.738C93.1531 146.343 92.6139 145.869 91.8527 145.537C89.6009 144.511 87.3491 145.506 86.9209 145.711C89.1252 146.99 89.6009 147.653 89.4899 148.017C89.2045 148.932 84.7167 149.233 83.5115 147.132C83.3846 146.927 83.0357 146.216 83.3212 144.874C83.8921 142.411 85.9536 140.974 89.0617 138.873Z" fill="#2D3436"/>
<path d="M110.819 142.379C111.326 141.337 113.61 141.59 114.498 141.684C115.64 141.811 116.655 141.921 117.574 142.727C118.272 143.327 119.287 144.637 118.922 145.695C118.589 146.706 117.337 146.627 114.91 147.811C114.498 148.017 110.533 149.959 110.803 151.238C110.914 151.759 111.628 151.743 113.895 152.707C115.862 153.528 117.019 154.033 117.987 155.138C118.462 155.691 119.414 156.781 119.16 157.886C118.684 159.923 114.435 160.27 114.324 159.955C114.228 159.686 117.21 158.944 117.241 157.554C117.273 156.496 115.608 155.644 114.561 155.091C111.485 153.496 109.408 154.065 108.599 152.533C108.139 151.664 108.393 150.733 108.44 150.559C108.678 149.706 109.344 148.98 112.595 147.353C115.56 145.869 116.877 145.522 116.861 144.858C116.845 144.242 115.703 143.737 115.005 143.563C113.039 143.042 111.596 144.274 110.93 143.579C110.644 143.263 110.66 142.727 110.819 142.379Z" fill="#2D3436"/>
<path d="M83.7338 134.736C84.7328 135.478 85.7319 136.221 86.7309 136.963C88.1581 136.821 89.5695 136.694 90.9967 136.552C91.8847 135.699 92.7728 134.831 93.6608 133.978C93.7242 134.515 93.8511 135.731 93.8987 136.315C94.4537 141.574 94.5013 142.032 94.1683 142.632C93.0741 144.574 89.3792 145.364 87.2542 144.006C86.2235 143.342 85.827 142.348 85.0817 140.437C84.1778 138.131 83.8606 136.11 83.7338 134.736Z" fill="#2D3436"/>
<path d="M87.7616 140.2C87.5237 140.689 87.0004 140.99 86.4613 140.895C86.3185 140.863 86.2551 141.1 86.3978 141.116C87.048 141.226 87.6982 140.911 87.9678 140.31C88.0312 140.184 87.8409 140.058 87.7616 140.2Z" fill="white"/>
<path d="M89.9659 140.042C90.4893 140.547 91.187 140.768 91.9006 140.658C92.0592 140.642 91.9799 140.405 91.8372 140.437C91.2029 140.532 90.5844 140.326 90.1245 139.884C90.0135 139.774 89.8549 139.932 89.9659 140.042Z" fill="white"/>
<path d="M89.1252 141.542C89.0776 141.542 89.0459 141.526 88.9983 141.526C89.0142 141.511 89.0142 141.479 89.03 141.463C89.0617 141.495 89.1093 141.526 89.141 141.558C89.141 141.526 89.1252 141.511 89.1252 141.479C89.0776 141.337 88.8556 141.4 88.9032 141.542C88.9825 141.89 89.1093 142.426 88.6812 142.6C88.5384 142.663 88.6019 142.884 88.7446 142.821C89.3155 142.584 89.252 141.969 89.141 141.463C89.0617 141.479 88.9825 141.511 88.919 141.526C88.919 141.558 88.9349 141.574 88.9349 141.605C88.9507 141.653 88.9983 141.7 89.0459 141.7C89.4582 141.668 89.1252 141.1 88.9349 141.432C88.8556 141.542 89.0459 141.668 89.1252 141.542Z" fill="white"/>
<path d="M88.9668 141.653C89.0461 141.921 89.062 142.221 89.2364 142.458C89.3791 142.648 89.6012 142.742 89.839 142.695C89.9817 142.663 89.9183 142.442 89.7756 142.474C89.3316 142.569 89.2681 141.874 89.1889 141.59C89.1571 141.447 88.9351 141.511 88.9668 141.653Z" fill="white"/>
<path d="M88.2056 141.874C87.7457 141.668 87.2699 141.574 86.7625 141.605C86.6039 141.621 86.6039 141.858 86.7625 141.842C87.2224 141.811 87.6664 141.89 88.0787 142.079C88.2214 142.142 88.3483 141.937 88.2056 141.874Z" fill="white"/>
<path d="M87.7931 142.19C87.3967 142.221 87.0478 142.379 86.7782 142.648C86.6672 142.758 86.8417 142.916 86.9527 142.821C87.1905 142.6 87.476 142.458 87.809 142.426C87.9359 142.411 87.9359 142.174 87.7931 142.19Z" fill="white"/>
<path d="M90.061 141.763C90.5208 141.59 90.9807 141.526 91.4723 141.574C91.6309 141.59 91.6309 141.353 91.4723 141.337C90.9648 141.29 90.4733 141.368 89.9975 141.542C89.8548 141.59 89.9024 141.826 90.061 141.763Z" fill="white"/>
<path d="M90.378 142.19C90.7268 142.142 91.0599 142.174 91.3929 142.3C91.5356 142.348 91.599 142.127 91.4563 142.079C91.1074 141.953 90.7427 141.921 90.378 141.969C90.2194 141.969 90.2194 142.221 90.378 142.19Z" fill="white"/>
<path d="M86.6356 139.505C86.8735 139.363 87.1589 139.363 87.3968 139.505C87.5236 139.584 87.6505 139.379 87.5236 139.3C87.2065 139.126 86.8418 139.126 86.5246 139.3C86.3819 139.379 86.5087 139.584 86.6356 139.505Z" fill="white"/>
<path d="M89.9658 139.189C90.2037 139.063 90.4733 139.031 90.7587 139.063C90.9014 139.079 90.9807 138.858 90.8221 138.842C90.4891 138.795 90.1561 138.842 89.8548 139C89.6962 139.047 89.8231 139.252 89.9658 139.189Z" fill="white"/>
<path d="M86.1758 134.231C86.6674 134.026 87.159 133.82 87.6347 133.599C87.5395 133.536 87.4603 133.473 87.3651 133.394C87.1748 133.994 86.8894 134.531 86.5088 135.036C86.4136 135.163 86.5722 135.352 86.7149 135.305C87.2541 135.099 87.7933 134.91 88.3324 134.705C88.5386 134.626 88.4593 134.278 88.2373 134.357C87.6981 134.562 87.1589 134.752 86.6198 134.957C86.6832 135.052 86.7466 135.131 86.8259 135.226C87.2382 134.705 87.5237 134.136 87.7298 133.504C87.7774 133.347 87.603 133.252 87.4602 133.299C86.9687 133.504 86.4771 133.71 86.0013 133.931C85.7793 134.026 85.9696 134.326 86.1758 134.231Z" fill="#2D3436"/>
<path d="M86.9685 131.357C87.3015 131.167 87.6346 131.041 87.9993 130.962C87.9359 130.867 87.8724 130.788 87.7931 130.694C87.6504 131.01 87.476 131.325 87.2698 131.61C87.1905 131.736 87.3015 131.862 87.4284 131.878C87.8566 131.91 88.253 131.799 88.586 131.546C88.7605 131.404 88.586 131.104 88.4116 131.246C88.1262 131.467 87.809 131.562 87.4443 131.531C87.4918 131.625 87.5394 131.704 87.6028 131.799C87.809 131.499 87.9834 131.199 88.1262 130.883C88.1896 130.741 88.0786 130.583 87.92 130.615C87.5236 130.694 87.143 130.836 86.7941 131.041C86.5879 131.167 86.7624 131.467 86.9685 131.357Z" fill="#2D3436"/>
<path d="M89.5853 135.178C89.0619 134.657 89.9658 134.357 90.061 133.899C90.1561 133.362 89.5218 132.857 90.2354 132.446C90.4416 132.336 90.2513 132.02 90.061 132.146C89.8073 132.289 89.6011 132.51 89.5377 132.81C89.4425 133.315 89.8866 133.615 89.506 134.073C89.3315 134.294 89.1254 134.357 89.0619 134.657C88.9985 134.957 89.1254 135.21 89.3315 135.431C89.506 135.589 89.7597 135.336 89.5853 135.178Z" fill="#2D3436"/>
<path d="M133.369 90.0946C93.6132 92.9528 53.8575 95.7952 14.1176 98.6534C13.0393 69.945 11.9609 41.2367 10.8984 12.5283C50.8286 11.9914 90.7588 11.4545 130.689 10.9176C131.577 37.3047 132.465 63.6917 133.369 90.0946Z" fill="white" stroke="#2D3436" stroke-miterlimit="10"/>
<path d="M44.6758 26.5035C52.3827 26.5035 60.1055 26.5035 67.8125 26.5035C68.1138 26.5035 68.1138 26.0297 67.8125 26.0297C60.1055 26.0297 52.3827 26.0297 44.6758 26.0297C44.3745 26.0297 44.3745 26.5035 44.6758 26.5035Z" fill="#2D3436"/>
<path d="M53.3341 28.4458C61.2789 28.4458 69.2237 28.4458 77.1685 28.4458C77.4698 28.4458 77.4698 27.972 77.1685 27.972C69.2237 27.972 61.2789 27.972 53.3341 27.972C53.0169 27.972 53.0169 28.4458 53.3341 28.4458Z" fill="#2D3436"/>
<path d="M15.7191 74.7771C16.0046 81.3778 16.29 87.9943 16.5755 94.595C16.5913 94.8951 17.0671 94.8951 17.0512 94.595C16.7658 87.9943 16.4803 81.3778 16.1949 74.7771C16.179 74.4771 15.7033 74.4771 15.7191 74.7771Z" fill="#2D3436"/>
<path d="M50.6542 70.9241C51.3361 70.9241 52.018 70.9241 52.7157 70.9241C53.017 70.9241 53.017 70.4503 52.7157 70.4503C52.0338 70.4503 51.3519 70.4503 50.6542 70.4503C50.3529 70.4503 50.3529 70.9241 50.6542 70.9241Z" fill="#2D3436"/>
<path d="M54.5076 70.9241C56.2678 70.9241 58.0122 70.9241 59.7724 70.9241C60.0737 70.9241 60.0737 70.4503 59.7724 70.4503C58.0122 70.4503 56.2678 70.4503 54.5076 70.4503C54.2063 70.4503 54.2063 70.9241 54.5076 70.9241Z" fill="#2D3436"/>
<path d="M63.7526 70.6715C65.8458 70.6715 67.9391 70.6715 70.0482 70.6715C70.3495 70.6715 70.3495 70.1977 70.0482 70.1977C67.9549 70.1977 65.8617 70.1977 63.7526 70.1977C63.4513 70.1977 63.4513 70.6715 63.7526 70.6715Z" fill="#2D3436"/>
<path d="M53.4926 74.2402C56.0616 74.2402 58.6306 74.2402 61.1996 74.2402C61.5009 74.2402 61.5009 73.7665 61.1996 73.7665C58.6306 73.7665 56.0616 73.7665 53.4926 73.7665C53.1755 73.7665 53.1755 74.2402 53.4926 74.2402Z" fill="#2D3436"/>
<path d="M57.2035 72.4558C60.2007 72.4558 63.1978 72.4558 66.1949 72.4558C66.4962 72.4558 66.4962 71.9821 66.1949 71.9821C63.1978 71.9821 60.2007 71.9821 57.2035 71.9821C56.9022 71.9821 56.9022 72.4558 57.2035 72.4558Z" fill="#2D3436"/>
<path d="M73.1248 89.3366C78.1676 89.3366 83.2263 89.3366 88.2691 89.3366C88.5704 89.3366 88.5704 88.8628 88.2691 88.8628C83.2263 88.8628 78.1676 88.8628 73.1248 88.8628C72.8235 88.8628 72.8235 89.3366 73.1248 89.3366Z" fill="#2D3436"/>
<path d="M85.5733 90.6156C88.2215 90.6156 90.8856 90.6156 93.5339 90.6156C93.8352 90.6156 93.8352 90.1419 93.5339 90.1419C90.8856 90.1419 88.2215 90.1419 85.5733 90.1419C85.272 90.1419 85.272 90.6156 85.5733 90.6156Z" fill="#2D3436"/>
<path d="M92.5032 88.6891C95.1197 88.6891 97.7204 88.6891 100.337 88.6891C100.638 88.6891 100.638 88.2154 100.337 88.2154C97.7204 88.2154 95.1197 88.2154 92.5032 88.2154C92.2019 88.2154 92.2019 88.6891 92.5032 88.6891Z" fill="#2D3436"/>
<path d="M105.855 45.8793C110.692 45.8793 115.529 45.8793 120.365 45.8793C120.667 45.8793 120.667 45.4055 120.365 45.4055C115.529 45.4055 110.692 45.4055 105.855 45.4055C105.554 45.4055 105.554 45.8793 105.855 45.8793Z" fill="#2D3436"/>
<path d="M101.368 46.6372C102.906 46.6372 104.444 46.6372 105.982 46.6372C106.284 46.6372 106.284 46.1635 105.982 46.1635C104.444 46.1635 102.906 46.1635 101.368 46.1635C101.05 46.1635 101.05 46.6372 101.368 46.6372Z" fill="#2D3436"/>
<path d="M102.256 47.9163C107.425 47.9163 112.611 47.9163 117.781 47.9163C118.082 47.9163 118.082 47.4426 117.781 47.4426C112.611 47.4426 107.425 47.4426 102.256 47.4426C101.954 47.4426 101.954 47.9163 102.256 47.9163Z" fill="#2D3436"/>
<path d="M121.396 46.7636C122.379 46.7636 123.363 46.7636 124.346 46.7636C124.647 46.7636 124.647 46.2898 124.346 46.2898C123.363 46.2898 122.379 46.2898 121.396 46.2898C121.079 46.2898 121.079 46.7636 121.396 46.7636Z" fill="#2D3436"/>
<path d="M117.543 66.0604C119.002 66.0604 120.445 66.0604 121.904 66.0604C122.205 66.0604 122.205 65.5866 121.904 65.5866C120.445 65.5866 119.002 65.5866 117.543 65.5866C117.226 65.5866 117.226 66.0604 117.543 66.0604Z" fill="#2D3436"/>
<path d="M114.72 67.3395C116.306 67.3395 117.891 67.3395 119.461 67.3395C119.763 67.3395 119.763 66.8658 119.461 66.8658C117.876 66.8658 116.29 66.8658 114.72 66.8658C114.403 66.8658 114.403 67.3395 114.72 67.3395Z" fill="#2D3436"/>
<path d="M117.019 68.6186C120.143 68.6186 123.267 68.6186 126.391 68.6186C126.693 68.6186 126.693 68.1448 126.391 68.1448C123.267 68.1448 120.143 68.1448 117.019 68.1448C116.718 68.1448 116.718 68.6186 117.019 68.6186Z" fill="#2D3436"/>
<path d="M122.935 67.0868C123.87 67.0868 124.822 67.0868 125.757 67.0868C126.059 67.0868 126.059 66.6131 125.757 66.6131C124.822 66.6131 123.87 66.6131 122.935 66.6131C122.617 66.6131 122.617 67.0868 122.935 67.0868Z" fill="#2D3436"/>
<path d="M57.6157 47.3952C59.8359 47.3952 62.0401 47.3952 64.2602 47.3952C64.5615 47.3952 64.5615 46.9215 64.2602 46.9215C62.0401 46.9215 59.8359 46.9215 57.6157 46.9215C57.3144 46.9215 57.3144 47.3952 57.6157 47.3952Z" fill="#2D3436"/>
<path d="M62.4523 48.7532C65.719 48.7532 69.0016 48.7532 72.2683 48.7532C72.5696 48.7532 72.5696 48.2795 72.2683 48.2795C69.0016 48.2795 65.719 48.2795 62.4523 48.2795C62.151 48.2795 62.1351 48.7532 62.4523 48.7532Z" fill="#2D3436"/>
<path d="M71.0631 46.9373C72.9185 46.9373 74.7897 46.9373 76.6451 46.9373C76.9464 46.9373 76.9464 46.4635 76.6451 46.4635C74.7897 46.4635 72.9185 46.4635 71.0631 46.4635C70.7618 46.4635 70.7618 46.9373 71.0631 46.9373Z" fill="#2D3436"/>
<path d="M14.3077 21.7345C14.6566 33.72 15.0055 45.7213 15.3544 57.7068C15.4495 61.1177 15.5447 64.5128 15.6557 67.9237C15.6715 68.2237 16.1473 68.2237 16.1314 67.9237C15.7825 55.9382 15.4336 43.9369 15.0848 31.9514C14.9896 28.5405 14.8945 25.1454 14.7835 21.7345C14.7835 21.4345 14.3077 21.4345 14.3077 21.7345Z" fill="#2D3436"/>
<path d="M129.579 60.9125C129.817 68.8396 130.055 76.751 130.293 84.6782C130.308 84.9782 130.784 84.9782 130.768 84.6782C130.53 76.751 130.293 68.8396 130.055 60.9125C130.055 60.6124 129.579 60.6124 129.579 60.9125Z" fill="#2D3436"/>
<path d="M96.7371 57.2805C96.8322 58.2438 96.9274 59.2228 97.0066 60.1861C97.9264 59.9492 98.8303 59.6966 99.7501 59.4597C99.6232 58.4965 99.5122 57.5174 99.3853 56.5541C98.4973 56.791 97.6251 57.0437 96.7371 57.2805Z" fill="#111314"/>
<path d="M96.1823 64.655C97.1337 64.5287 98.0693 64.4182 99.0208 64.2918C99.1477 65.4446 99.2587 66.5974 99.3855 67.7501C98.5292 67.7817 97.6729 67.8133 96.8324 67.8449C96.6104 66.7711 96.4043 65.713 96.1823 64.655Z" fill="#111314"/>
<path d="M99.6549 71.6505C99.9562 72.6453 100.258 73.6559 100.575 74.6508C101.431 74.256 102.287 73.8612 103.128 73.4664C102.858 72.5821 102.573 71.7136 102.303 70.8293C101.431 71.1136 100.543 71.382 99.6549 71.6505Z" fill="#111314"/>
<path d="M36.9688 81.062C37.1749 84.1255 37.3811 87.189 37.5872 90.2367C42.9789 89.8893 48.3706 89.5577 53.7623 89.2103C53.8574 86.4626 53.9684 83.6991 54.0636 80.9515C48.3706 80.9989 42.6617 81.0304 36.9688 81.062Z" fill="#0010F7"/>
<path d="M104 18.7342C104.622 18.7342 105.126 18.3171 105.126 17.8026C105.126 17.288 104.622 16.8709 104 16.8709C103.378 16.8709 102.874 17.288 102.874 17.8026C102.874 18.3171 103.378 18.7342 104 18.7342Z" fill="#0010F7"/>
<path d="M27.4858 25.7139C28.0025 25.7139 28.4214 25.4382 28.4214 25.0981C28.4214 24.758 28.0025 24.4822 27.4858 24.4822C26.9691 24.4822 26.5502 24.758 26.5502 25.0981C26.5502 25.4382 26.9691 25.7139 27.4858 25.7139Z" fill="#111314"/>
<path d="M42.3764 43.5738C42.7793 43.5738 43.1059 43.192 43.1059 42.721C43.1059 42.2501 42.7793 41.8683 42.3764 41.8683C41.9736 41.8683 41.647 42.2501 41.647 42.721C41.647 43.192 41.9736 43.5738 42.3764 43.5738Z" fill="#111314"/>
<path opacity="0.21" d="M35.6843 22.303C35.9697 22.2557 36.5248 24.8928 37.8885 29.6775C39.6805 35.9782 41.4566 41.0629 42.741 44.537C40.7905 45.7371 36.4296 48.0268 30.4829 48.1058C26.2806 48.1532 22.9663 47.0794 20.9999 46.2582C24.8533 46.6846 27.9615 46.5741 30.134 46.3688C33.5752 46.053 32.9726 45.6898 35.5733 45.5634C36.6516 45.5161 38.063 45.5161 39.506 44.6475C40.0293 44.3317 40.4099 43.9843 40.6637 43.7317C39.6488 41.6472 38.3484 38.5837 37.3018 34.7465C35.6367 28.509 35.272 22.382 35.6843 22.303Z" fill="#636E72"/>
<path opacity="0.25" d="M50.5431 39.4365C50.7968 41.4419 51.2567 43.6843 52.0179 46.0845C54.1904 52.9063 57.8536 57.77 60.6128 60.7703C58.9636 61.9863 56.9179 63.2496 54.46 64.3076C47.0068 67.5132 40.0451 67.0394 36.3185 66.471C36.1758 65.634 36.0331 64.7971 35.8904 63.9602C37.4762 64.0075 39.1571 63.976 40.9173 63.8812C47.1971 63.4864 52.5887 62.081 56.8862 60.5177C55.5224 58.2122 54.5393 56.2225 53.8574 54.7223C52.2082 51.1377 50.9871 48.4374 50.5589 44.7897C50.2893 42.5631 50.4003 40.684 50.5431 39.4365Z" fill="#636E72"/>
<path opacity="0.14" d="M100.955 49.8902C101.114 53.4906 101.494 56.4751 101.827 58.6227C102.604 63.5496 103.175 66.9605 105.205 70.7977C106.474 73.1822 107.901 74.935 108.932 76.072C107.14 77.6037 104.729 79.3408 101.637 80.7304C93.8668 84.2518 86.5722 83.5412 83.1627 82.9727C82.9883 82.199 82.8138 81.4252 82.6394 80.6356C83.0676 80.6672 83.7336 80.6988 84.5424 80.7146C87.2382 80.7778 92.8519 80.8725 99.2902 78.7249C101.098 78.1248 103.635 77.1142 106.49 75.4404C105.364 73.9402 104.254 72.1558 103.286 70.0871C99.4646 61.9231 100.226 53.9959 100.955 49.8902Z" fill="#636E72"/>
<path opacity="0.18" d="M113.102 14.4706C113.42 15.9392 113.88 18.1816 114.339 20.9766C115.196 26.3772 115.132 28.3353 116.131 31.5251C116.655 33.1832 117.59 35.5361 119.35 38.2206C117.876 39.4207 116.036 40.6682 113.769 41.7104C106.347 45.1371 99.2427 44.1738 95.976 43.4948C96.0077 42.8632 96.0394 42.2315 96.0711 41.6157C96.4834 41.7262 97.1019 41.8683 97.863 41.9946C98.8621 42.1526 102.557 42.6895 109.503 40.9524C111.422 40.4787 114.006 39.7207 116.972 38.5048C116.401 37.4942 115.56 35.915 114.799 33.8938C112.579 28.0352 112.595 22.9505 112.627 20.3292C112.643 18.8922 112.738 16.8867 113.102 14.4706Z" fill="#636E72"/>
<path d="M18.3041 21.4029C16.7342 29.6775 18.32 38.0468 19.9057 46.1951C19.9692 46.4951 20.4291 46.3688 20.3656 46.0688C18.7957 38.0153 17.2258 29.7249 18.764 21.5293C18.8115 21.245 18.3517 21.1029 18.3041 21.4029Z" fill="#2D3436"/>
<path d="M18.7481 21.3398C21.0158 22.8557 23.7592 23.1242 26.4392 22.9347C29.4998 22.7136 32.5286 22.0662 35.5575 21.5609C35.8588 21.5135 35.7319 21.0555 35.4306 21.1029C32.5286 21.5767 29.6266 22.1925 26.6929 22.4294C24.0129 22.6505 21.2695 22.4452 18.986 20.9134C18.7323 20.7555 18.4944 21.1661 18.7481 21.3398Z" fill="#2D3436"/>
<path d="M35.2403 21.8925C35.6843 29.4407 36.826 37.1468 40.6637 43.7791C40.8222 44.0475 41.2345 43.8106 41.076 43.5422C37.2859 36.9731 36.16 29.3459 35.716 21.8925C35.7001 21.5924 35.2244 21.5924 35.2403 21.8925Z" fill="#2D3436"/>
<path d="M20.3022 46.3214C23.9019 47.3637 27.7712 46.732 31.4344 46.432C34.6853 46.1635 38.174 46.0372 40.965 44.1423C41.2187 43.9685 40.9809 43.558 40.7271 43.7317C37.9203 45.6424 34.3998 45.7056 31.1331 45.974C27.6127 46.2583 23.9019 46.8425 20.429 45.8477C20.1277 45.7845 20.0009 46.2425 20.3022 46.3214Z" fill="#2D3436"/>
<path d="M26.3917 25.1928C26.0746 25.0507 26.4234 24.7507 26.6137 24.7033C26.8516 24.6402 27.3115 24.6086 27.4225 24.877C27.5018 25.0823 27.3749 25.3508 27.1846 25.4297C26.8833 25.5718 26.5503 25.3981 26.3441 25.1928C26.1221 24.9718 25.7891 25.3034 26.0111 25.5245C26.4076 25.9192 27.0577 26.1245 27.5493 25.7613C27.9458 25.4771 28.0885 24.8454 27.7555 24.4664C27.3749 24.0401 26.5662 24.0875 26.138 24.4033C25.7574 24.6875 25.6781 25.3665 26.1697 25.5876C26.4393 25.7297 26.6772 25.3192 26.3917 25.1928Z" fill="#2D3436"/>
<path d="M32.7505 46.3846C31.6088 52.1484 32.8298 57.9753 34.0667 63.6286C34.1302 63.9286 34.59 63.8023 34.5266 63.5022C33.3056 57.9438 32.1004 52.1958 33.2104 46.5109C33.2738 46.2109 32.814 46.0846 32.7505 46.3846Z" fill="#2D3436"/>
<path d="M39.2999 40.3365C42.9631 39.6417 46.6738 39.3891 50.3845 39.5312C50.3053 39.4522 50.226 39.3733 50.1467 39.2943C49.4014 46.9057 52.6681 54.1538 56.6326 60.4545C56.7911 60.7072 57.2034 60.4703 57.0449 60.2176C53.128 53.9801 49.8771 46.8267 50.6224 39.2943C50.6383 39.168 50.4955 39.0575 50.3845 39.0575C46.6262 38.9153 42.8679 39.1838 39.173 39.8786C38.8717 39.9418 38.9986 40.3997 39.2999 40.3365Z" fill="#2D3436"/>
<path d="M34.3206 63.9601C42.0275 64.8602 49.8454 63.7075 56.9815 60.6756C57.2669 60.5492 57.0132 60.1544 56.7436 60.265C49.7027 63.2653 41.9324 64.3707 34.3206 63.4864C34.0193 63.4548 34.0193 63.9285 34.3206 63.9601Z" fill="#2D3436"/>
<path d="M42.2811 42.2789C42.2811 42.2631 42.3287 42.1842 42.3287 42.1526C42.3445 42.0894 42.3921 42.0263 42.4397 41.9789C42.5348 41.8999 42.6458 41.8368 42.7727 41.821C43.0106 41.7894 43.2326 41.9157 43.296 42.1526C43.3436 42.3421 43.2643 42.5947 43.0423 42.6263C42.8361 42.6579 42.6458 42.5158 42.6141 42.3105C42.5666 42.0105 42.1067 42.1368 42.1543 42.4368C42.2335 42.9895 42.9471 43.258 43.407 42.9895C43.9145 42.6895 43.8828 41.9157 43.4546 41.5525C42.9789 41.1577 42.186 41.363 41.9164 41.8999C41.7895 42.1684 41.7895 42.5316 42.0908 42.6895C42.3287 42.8158 42.6776 42.7053 42.741 42.4052C42.7886 42.1052 42.3287 41.9789 42.2811 42.2789Z" fill="#2D3436"/>
<path d="M19.8739 29.9933C24.0921 30.5776 28.2786 29.7091 32.3224 28.5563C32.6237 28.4774 32.4968 28.0194 32.1955 28.0984C28.231 29.2196 24.1239 30.1039 20.0008 29.5354C19.6995 29.488 19.5726 29.946 19.8739 29.9933Z" fill="#2D3436"/>
<path d="M20.6669 33.0884C22.8553 33.3253 25.0437 33.1042 27.1528 32.441C27.4382 32.3462 27.3272 31.8883 27.0259 31.983C24.9644 32.6305 22.8236 32.8358 20.6669 32.6147C20.3656 32.5831 20.3656 33.0568 20.6669 33.0884Z" fill="#2D3436"/>
<path d="M20.6669 36.9099C24.8534 37.3994 29.0716 37.0994 33.1312 36.0414C33.4325 35.9624 33.3056 35.5045 33.0043 35.5834C28.9764 36.6414 24.8058 36.9257 20.6669 36.4361C20.3656 36.3888 20.3656 36.8625 20.6669 36.9099Z" fill="#2D3436"/>
<path d="M36.3343 61.1493C40.5366 61.3388 44.739 60.8335 48.7669 59.6334C49.0523 59.5544 48.9413 59.0965 48.64 59.1754C44.6438 60.3598 40.5049 60.8651 36.3343 60.6756C36.0171 60.6598 36.0171 61.1336 36.3343 61.1493Z" fill="#2D3436"/>
<path d="M37.1432 57.5332C39.0144 57.47 40.8857 57.3279 42.7569 57.1226C43.0582 57.091 43.0582 56.6173 42.7569 56.6488C40.8857 56.8541 39.0303 56.9963 37.1432 57.0594C36.8419 57.0752 36.8419 57.5489 37.1432 57.5332Z" fill="#2D3436"/>
<path d="M38.6654 51.0272C39.9023 51.1851 41.1868 50.8693 42.4079 50.6956C43.7558 50.4903 45.0879 50.3008 46.4358 50.0955C46.7371 50.0482 46.6102 49.5902 46.3089 49.6376C45.072 49.8271 43.8192 50.0166 42.5823 50.1903C41.2978 50.3798 39.9658 50.7272 38.6654 50.5535C38.3641 50.5061 38.3641 50.9798 38.6654 51.0272Z" fill="#2D3436"/>
<path d="M94.7073 15.6234C92.9788 24.0716 92.8043 32.7568 94.184 41.2682C94.2315 41.5683 94.6914 41.4419 94.6438 41.1419C93.2801 32.7252 93.4704 24.1032 95.1672 15.7497C95.2306 15.4497 94.7707 15.3233 94.7073 15.6234Z" fill="#2D3436"/>
<path d="M95.2466 15.7339C101.003 14.4233 106.95 14.1548 112.817 14.9444C113.118 14.9917 113.245 14.5338 112.944 14.4864C106.997 13.6811 100.971 13.9495 95.1198 15.276C94.8343 15.3549 94.9612 15.8129 95.2466 15.7339Z" fill="#2D3436"/>
<path d="M112.674 14.518C112.5 22.6504 112.611 31.2408 116.75 38.5206C116.908 38.789 117.305 38.5522 117.162 38.2837C113.071 31.0829 112.976 22.5715 113.15 14.518C113.166 14.218 112.69 14.218 112.674 14.518Z" fill="#2D3436"/>
<path d="M94.5487 41.5209C96.3248 42.0578 98.2277 42.0894 100.067 42.1052C102.049 42.121 104.032 41.9946 106.014 41.7262C109.804 41.2209 113.499 40.1944 117.035 38.7101C117.321 38.5995 117.067 38.189 116.797 38.2995C113.261 39.7839 109.534 40.7945 105.729 41.284C103.952 41.5051 102.16 41.6314 100.369 41.6157C98.4815 41.6157 96.4992 41.5999 94.6914 41.0472C94.3743 40.984 94.2633 41.4419 94.5487 41.5209Z" fill="#2D3436"/>
<path d="M104.254 16.2392C103.715 16.4287 103.477 17.0446 103.667 17.5657C103.889 18.15 104.571 18.2921 105.079 17.9447C105.57 17.5973 105.729 16.9025 105.253 16.4603C104.841 16.0813 104.127 16.0655 103.746 16.4761C103.54 16.6972 103.873 17.0288 104.079 16.8077C104.555 16.3024 105.491 17.013 104.841 17.5183C104.587 17.7078 104.222 17.7078 104.111 17.3762C104.032 17.1235 104.111 16.7761 104.381 16.6814C104.666 16.5866 104.539 16.1287 104.254 16.2392Z" fill="#2D3436"/>
<path d="M94.9453 22.9663C99.2745 23.0768 103.588 22.9979 107.901 22.7136C108.202 22.6978 108.202 22.2241 107.901 22.2399C103.588 22.5241 99.2586 22.6189 94.9453 22.4925C94.6281 22.4925 94.6281 22.9663 94.9453 22.9663Z" fill="#2D3436"/>
<path d="M95.3734 25.3665C96.9909 25.4297 98.6084 25.4929 100.21 25.556C100.511 25.5718 100.511 25.0981 100.21 25.0823C98.5925 25.0191 96.975 24.956 95.3734 24.8928C95.0562 24.877 95.0562 25.3507 95.3734 25.3665Z" fill="#2D3436"/>
<path d="M94.9295 28.7143C99.0049 28.9353 103.128 29.1248 107.14 28.2405C107.441 28.1774 107.314 27.7194 107.013 27.7826C103.033 28.6511 98.9574 28.4616 94.9295 28.2405C94.6282 28.2247 94.6282 28.6985 94.9295 28.7143Z" fill="#2D3436"/>
<path d="M35.8112 80.0514C35.4464 83.2096 35.3196 86.3836 35.4306 89.5577C35.4464 89.8577 35.9222 89.8577 35.9063 89.5577C35.7953 86.3836 35.9222 83.2096 36.2869 80.0514C36.3186 79.7513 35.8429 79.7513 35.8112 80.0514Z" fill="#2D3436"/>
<path d="M35.9696 80.2409C41.615 80.2409 47.2763 80.1619 52.9217 79.9882C53.223 79.9724 53.223 79.4987 52.9217 79.5145C47.2763 79.6882 41.615 79.7671 35.9696 79.7671C35.6683 79.7671 35.6683 80.2409 35.9696 80.2409Z" fill="#2D3436"/>
<path d="M52.8743 79.7671C52.9219 82.5148 52.9694 85.2467 53.017 87.9943C53.017 88.2944 53.4927 88.2944 53.4927 87.9943C53.4452 85.2467 53.3976 82.5148 53.35 79.7671C53.35 79.4671 52.8584 79.4671 52.8743 79.7671Z" fill="#2D3436"/>
<path d="M35.3831 89.2102C35.4148 90.2366 37.2067 89.7787 37.7935 89.7471C39.4744 89.6366 41.1553 89.526 42.8204 89.3997C46.2299 89.1628 49.6393 88.9418 53.0487 88.7049C53.35 88.6891 53.35 88.2154 53.0487 88.2312C50.1468 88.4207 47.2606 88.6259 44.3586 88.8154C42.979 88.9102 41.5993 89.0049 40.2197 89.0997C39.8074 89.1313 35.8588 89.5103 35.8429 89.2102C35.8588 88.9102 35.3831 88.9102 35.3831 89.2102Z" fill="#2D3436"/>
<path d="M37.2542 82.3727C41.0601 82.199 44.866 82.3411 48.6402 82.8149C48.9415 82.8464 48.9415 82.3727 48.6402 82.3411C44.866 81.8674 41.0601 81.7253 37.2542 81.899C36.9371 81.9148 36.9371 82.3885 37.2542 82.3727Z" fill="#2D3436"/>
<path d="M37.3969 84.773C39.5218 84.615 41.6626 84.4413 43.7876 84.2834C44.0889 84.2676 44.0889 83.7939 43.7876 83.8097C41.6626 83.9676 39.5218 84.1413 37.3969 84.2992C37.0956 84.315 37.0956 84.7887 37.3969 84.773Z" fill="#2D3436"/>
<path d="M38.1106 87.189C41.1711 86.7942 44.5013 85.9889 47.5777 86.5416C47.879 86.5889 48.0059 86.1468 47.7046 86.0836C44.5647 85.5151 41.2346 86.3047 38.1106 86.7153C37.8251 86.7626 37.8093 87.2364 38.1106 87.189Z" fill="#2D3436"/>
<path d="M79.357 53.1747C76.8356 62.1125 77.1527 71.682 80.245 80.4461C80.3402 80.7303 80.8001 80.604 80.7049 80.3198C77.6443 71.6346 77.3272 62.1599 79.8169 53.3011C79.8962 53.001 79.4363 52.8747 79.357 53.1747Z" fill="#2D3436"/>
<path d="M79.674 53.3327C86.7308 53.3011 93.7558 52.3852 100.591 50.6008C100.892 50.5219 100.765 50.0639 100.464 50.1429C93.6765 51.9115 86.6991 52.8274 79.674 52.8589C79.3569 52.8589 79.3569 53.3327 79.674 53.3327Z" fill="#2D3436"/>
<path d="M100.464 50.3166C100.178 54.7066 100.369 59.1281 101.162 63.4707C101.558 65.6656 102.034 67.8606 102.906 69.9135C103.778 71.9505 104.983 73.7981 106.395 75.4877C106.585 75.7246 106.934 75.393 106.728 75.1561C105.285 73.4349 104.064 71.5242 103.207 69.4397C102.398 67.45 101.954 65.3182 101.59 63.218C100.829 58.9702 100.654 54.6276 100.924 50.3166C100.955 50.0166 100.48 50.0166 100.464 50.3166Z" fill="#2D3436"/>
<path d="M80.3084 80.6988C89.2839 81.3305 98.656 80.3198 106.521 75.7088C106.791 75.5509 106.553 75.1403 106.284 75.2983C98.4657 79.8777 89.1888 80.841 80.3084 80.2251C80.0071 80.1935 80.0071 80.6673 80.3084 80.6988Z" fill="#2D3436"/>
<path d="M89.8548 54.7539C89.5852 54.296 90.1243 53.7275 90.5842 54.0907C91.0758 54.4855 90.5525 55.1171 90.0292 54.9118C89.7438 54.8013 89.6169 55.2592 89.9023 55.3698C90.3305 55.5435 90.8538 55.354 91.1075 54.975C91.393 54.5486 91.2661 54.0117 90.8697 53.7117C90.0133 53.0327 88.935 54.0907 89.4425 54.9908C89.601 55.2592 90.0133 55.0224 89.8548 54.7539Z" fill="#2D3436"/>
<path d="M79.8325 60.2019C84.5741 60.1229 89.3156 59.7913 94.0412 59.2228C94.3425 59.1912 94.3425 58.7175 94.0412 58.7491C89.3314 59.3334 84.5899 59.6492 79.8325 59.7281C79.5312 59.7439 79.5312 60.2177 79.8325 60.2019Z" fill="#2D3436"/>
<path d="M95.7381 57.0279C95.8808 57.7543 96.0235 58.4965 96.1662 59.2229C96.2297 59.5229 96.6895 59.3966 96.6261 59.0965C96.4834 58.3701 96.3407 57.6279 96.1979 56.9016C96.1504 56.6015 95.6905 56.7278 95.7381 57.0279Z" fill="#2D3436"/>
<path d="M96.0552 56.9647C96.9274 56.8383 97.7996 56.712 98.6877 56.5699C98.989 56.5225 98.8621 56.0646 98.5608 56.112C97.6886 56.2383 96.8164 56.3646 95.9284 56.5067C95.6271 56.5541 95.7539 57.012 96.0552 56.9647Z" fill="#2D3436"/>
<path d="M98.5451 56.4277C98.6719 57.1067 98.7829 57.7857 98.9098 58.449C98.9574 58.749 99.4173 58.6227 99.3697 58.3226C99.2428 57.6436 99.1318 56.9646 99.0049 56.3014C98.9574 56.0171 98.4975 56.1435 98.5451 56.4277Z" fill="#2D3436"/>
<path d="M96.5628 59.586C97.4984 59.3965 98.3865 59.1438 99.2745 58.7964C99.56 58.6859 99.4331 58.228 99.1476 58.3385C98.2596 58.6701 97.3557 58.9386 96.436 59.128C96.1347 59.1912 96.2615 59.6492 96.5628 59.586Z" fill="#2D3436"/>
<path d="M96.642 57.5016C96.8164 57.8964 97.0543 58.2122 97.4032 58.4806C97.53 58.5754 97.7679 58.5754 97.7996 58.3701C97.9265 57.5174 98.2278 56.7594 98.7352 56.0488C98.9097 55.7961 98.4974 55.5593 98.3229 55.8119C97.7996 56.5383 97.4666 57.3595 97.3397 58.2438C97.4666 58.2122 97.6093 58.1806 97.7362 58.1332C97.4349 57.8964 97.2129 57.6121 97.0543 57.2489C96.9274 56.9805 96.5151 57.2173 96.642 57.5016Z" fill="#2D3436"/>
<path d="M96.8164 64.276C96.5627 65.413 96.6737 66.5183 97.1336 67.5763C97.2604 67.8606 97.6569 67.6079 97.5459 67.3395C97.1336 66.4078 97.0543 65.3972 97.2763 64.4023C97.3397 64.1023 96.8798 63.976 96.8164 64.276Z" fill="#2D3436"/>
<path d="M97.1335 64.4339C98.085 64.276 99.0365 64.1339 99.988 63.976C99.8928 63.8812 99.7977 63.7865 99.7025 63.6917C99.5439 64.7024 99.655 65.6656 100.051 66.6131C100.162 66.8973 100.622 66.771 100.511 66.4868C100.147 65.634 100.02 64.7339 100.162 63.8181C100.194 63.6286 100.067 63.5022 99.877 63.5338C98.9255 63.6759 97.974 63.8338 97.0225 63.9918C96.7054 64.0233 96.8322 64.4813 97.1335 64.4339Z" fill="#2D3436"/>
<path d="M97.3397 67.5922C98.3864 67.5606 99.3854 67.3553 100.369 67.0079C100.654 66.8974 100.527 66.4394 100.242 66.55C99.3061 66.8974 98.3388 67.0869 97.3397 67.1185C97.0384 67.1185 97.0384 67.5922 97.3397 67.5922Z" fill="#2D3436"/>
<path d="M97.4825 65.3972C97.6252 65.8077 97.8631 66.092 98.2437 66.313C98.4181 66.4078 98.5767 66.2815 98.6084 66.1078C98.7035 65.2708 98.9255 64.4655 99.2744 63.6917C99.4013 63.4233 98.989 63.1706 98.8621 63.4548C98.4815 64.3076 98.2437 65.1919 98.1326 66.1078C98.2595 66.0446 98.3705 65.9656 98.4974 65.9025C98.2278 65.7446 98.0692 65.5551 97.9582 65.255C97.8472 64.9866 97.3873 65.1129 97.4825 65.3972Z" fill="#2D3436"/>
<path d="M97.7996 71.6031C97.9106 72.6611 98.1961 73.656 98.6718 74.6034C98.7987 74.8719 99.211 74.635 99.0841 74.3666C98.6559 73.4981 98.3864 72.5664 98.2912 71.6031C98.2436 71.3031 97.7679 71.3031 97.7996 71.6031Z" fill="#2D3436"/>
<path d="M98.0216 71.5557C99.2427 71.6663 100.384 71.4452 101.479 70.9083C101.368 70.8609 101.241 70.8136 101.13 70.7662C101.336 71.7294 101.764 72.5664 102.43 73.3086C102.636 73.5296 102.969 73.198 102.763 72.9769C102.161 72.2979 101.78 71.5399 101.59 70.6556C101.558 70.4977 101.368 70.4504 101.241 70.5135C100.226 71.003 99.1475 71.1925 98.0216 71.0978C97.7203 71.0662 97.7203 71.5399 98.0216 71.5557Z" fill="#2D3436"/>
<path d="M99.0999 74.7771C100.337 74.3192 101.558 73.8297 102.747 73.2928C103.033 73.1664 102.779 72.7559 102.509 72.8822C101.352 73.4033 100.162 73.877 98.973 74.3192C98.6876 74.4297 98.8145 74.8877 99.0999 74.7771Z" fill="#2D3436"/>
<path d="M98.8464 72.3926C99.227 72.7242 100.099 73.8612 100.543 73.0243C100.749 72.6453 100.702 72.1242 100.829 71.6978C101.019 71.0977 101.336 70.545 101.748 70.0713C101.939 69.8344 101.606 69.5028 101.415 69.7397C100.971 70.2608 100.622 70.8293 100.416 71.4925C100.321 71.7925 100.242 72.1084 100.194 72.4242C100.131 72.819 100.02 72.7242 99.7186 72.5347C99.5283 72.4084 99.3539 72.2189 99.1794 72.061C98.9574 71.8557 98.6244 72.1873 98.8464 72.3926Z" fill="#2D3436"/>
<path d="M80.2608 67.9238C84.701 67.8764 89.1253 67.5132 93.5021 66.8184C93.8034 66.771 93.6765 66.3131 93.3752 66.3605C89.0302 67.0395 84.6534 67.4027 80.2608 67.4343C79.9595 67.45 79.9595 67.9238 80.2608 67.9238Z" fill="#2D3436"/>
<path d="M79.7534 61.5125C82.6237 61.5915 85.4781 61.4967 88.3326 61.2599C88.6339 61.2283 88.6339 60.7545 88.3326 60.7861C85.4781 61.023 82.6079 61.1019 79.7534 61.0388C79.4521 61.023 79.4521 61.4967 79.7534 61.5125Z" fill="#2D3436"/>
<path d="M80.4352 68.8555C83.4482 68.9976 86.4612 68.887 89.4425 68.5081C89.7438 68.4765 89.7438 68.0027 89.4425 68.0343C86.4453 68.3975 83.4323 68.5238 80.4352 68.3817C80.1339 68.3659 80.1339 68.8397 80.4352 68.8555Z" fill="#2D3436"/>
<path d="M90.4573 68.287C91.3136 68.3027 92.1541 68.1922 92.9787 67.9238C93.2641 67.829 93.1373 67.3711 92.8518 67.4658C92.0748 67.7185 91.2819 67.829 90.4573 67.8132C90.156 67.8132 90.156 68.287 90.4573 68.287Z" fill="#2D3436"/>
<path d="M82.0528 74.7929C85.6684 74.5719 89.2681 74.2403 92.852 73.7507C93.1533 73.7034 93.1533 73.2296 92.852 73.277C89.2681 73.7507 85.6684 74.0981 82.0528 74.3192C81.7357 74.335 81.7357 74.8087 82.0528 74.7929Z" fill="#2D3436"/>
<path d="M82.4652 75.8983C83.6546 75.8983 84.8439 75.8983 86.0333 75.8983C86.3346 75.8983 86.3346 75.4246 86.0333 75.4246C84.8439 75.4246 83.6546 75.4246 82.4652 75.4246C82.1639 75.4246 82.1639 75.8983 82.4652 75.8983Z" fill="#2D3436"/>
<path d="M83.4957 76.9563C85.3511 76.8458 87.2065 76.6721 89.0618 76.451C90.5525 76.2615 92.1541 76.1826 93.4386 75.314C93.6923 75.1403 93.4545 74.7298 93.2007 74.9035C91.8528 75.8194 90.045 75.8667 88.4751 76.0404C86.8259 76.2299 85.1608 76.3721 83.5116 76.4826C83.1944 76.4984 83.1786 76.9721 83.4957 76.9563Z" fill="#2D3436"/>
<path d="M101.606 64.1971C104.492 64.0549 107.362 63.676 110.201 63.0759C110.105 63.0285 110.01 62.9654 109.915 62.918C111.247 66.8658 113.214 70.5451 115.735 73.8771C115.909 74.1139 116.338 73.8771 116.147 73.6402C113.658 70.3556 111.707 66.7079 110.375 62.8074C110.327 62.6811 110.216 62.6179 110.09 62.6495C107.299 63.2496 104.476 63.6128 101.621 63.7549C101.288 63.7391 101.288 64.2129 101.606 64.1971Z" fill="#2D3436"/>
<path d="M102.097 77.5248C102.525 78.1249 102.874 78.7565 103.176 79.4356C103.207 79.5303 103.35 79.5777 103.445 79.5461C105.776 78.7723 108.076 77.9196 110.327 76.9563C111.469 76.4668 112.595 75.9615 113.721 75.4246C114.26 75.1719 114.799 74.9035 115.323 74.635C115.64 74.4771 116.005 74.3824 116.116 74.035C116.147 73.9402 116.1 73.8139 116.005 73.7665C115.862 73.6876 115.783 73.6876 115.64 73.7665C115.545 73.8139 115.497 73.9402 115.529 74.035C115.529 74.0508 115.545 74.0666 115.545 74.0823C115.624 74.3824 116.084 74.2561 116.005 73.956C116.005 73.9402 115.989 73.9244 115.989 73.9086C115.957 74.0034 115.909 74.0824 115.878 74.1771C115.846 74.1771 115.798 74.1771 115.767 74.1771C115.735 74.0824 115.687 74.0034 115.656 73.9086C115.561 74.1929 114.562 74.4929 114.292 74.635C113.848 74.8561 113.404 75.0614 112.944 75.2825C111.882 75.7878 110.803 76.2615 109.709 76.7195C107.616 77.6038 105.475 78.3933 103.318 79.1039C103.413 79.1355 103.493 79.1829 103.588 79.2145C103.302 78.5355 102.938 77.9038 102.51 77.3037C102.335 77.0353 101.923 77.2722 102.097 77.5248Z" fill="#2D3436"/>
<path d="M104.856 65.4288C104.825 65.2235 105.205 65.034 105.348 65.1761C105.538 65.3656 105.221 65.713 104.999 65.6341C104.714 65.5235 104.587 65.9815 104.872 66.092C105.554 66.3447 106.22 65.3656 105.697 64.8445C105.459 64.6077 105.094 64.6234 104.809 64.7656C104.507 64.9235 104.349 65.2235 104.412 65.5551C104.444 65.8552 104.904 65.713 104.856 65.4288Z" fill="#2D3436"/>
<path d="M34.5902 52.7958C36.3504 52.8274 38.1265 52.7484 39.8709 52.5116C41.6945 52.2589 43.5023 51.7378 45.3577 51.8168C45.659 51.8325 45.659 51.3588 45.3577 51.343C43.6609 51.2799 42.0117 51.7062 40.3466 51.9589C38.4437 52.2589 36.509 52.3694 34.5743 52.3221C34.2889 52.3221 34.2889 52.7958 34.5902 52.7958Z" fill="#2D3436"/>
<path d="M34.8439 47.5689C37.5397 47.7742 40.2356 47.5374 42.8521 46.8583C43.1534 46.7794 43.0266 46.3214 42.7253 46.4004C40.1404 47.0636 37.508 47.3005 34.8439 47.0952C34.5426 47.0794 34.5426 47.5531 34.8439 47.5689Z" fill="#2D3436"/>
<path d="M95.8651 34.2727C95.5955 36.0098 95.3735 37.8889 96.4677 39.4049C96.6421 39.6575 97.0544 39.4207 96.88 39.168C95.8651 37.7626 96.0871 36.0098 96.325 34.3991C96.3725 34.099 95.9127 33.9727 95.8651 34.2727Z" fill="#2D3436"/>
<path d="M96.0076 34.2569C99.7818 34.3991 103.556 34.0359 107.235 33.1674C107.14 33.12 107.045 33.0568 106.95 33.0094C107.283 34.6359 107.917 36.1519 108.805 37.5415C108.964 37.7942 109.376 37.5573 109.217 37.3046C108.345 35.9466 107.742 34.4622 107.409 32.8831C107.378 32.7568 107.235 32.6936 107.124 32.7252C103.493 33.5779 99.7659 33.9411 96.0235 33.799C95.7063 33.7674 95.7063 34.2412 96.0076 34.2569Z" fill="#2D3436"/>
<path d="M96.864 39.3891C100.955 39.2627 104.999 38.6627 108.932 37.5889C109.233 37.5099 109.106 37.052 108.805 37.1309C104.904 38.2047 100.908 38.8048 96.864 38.9153C96.5468 38.9311 96.5468 39.4049 96.864 39.3891Z" fill="#2D3436"/>
<path d="M152.779 149.691C152.779 151.475 152.779 153.244 152.779 155.028C140.093 160.034 137.508 161.818 137.698 162.466C137.746 162.623 138.079 163.097 144.739 162.323C151.336 161.55 156.68 160.429 160.391 159.513C159.74 155.865 159.074 152.217 158.424 148.569C156.537 148.948 154.65 149.327 152.779 149.691Z" fill="#2D3436"/>
<path d="M158.472 74.1612C158.107 74.8402 157.98 75.3929 157.949 75.5193C155.681 85.1203 152.716 90.7893 150.781 101.922C147.086 123.367 150.273 147.732 150.575 150.022C151.59 150.464 153.54 151.127 156.03 151.033C158.218 150.938 159.915 150.29 160.882 149.833C160.518 142.837 160.882 134.199 163.309 124.677C166.274 113.008 170.032 109.139 173.41 95.4951C175.916 85.3888 178.818 73.6243 173.807 70.1345C169.969 67.4184 160.978 69.4081 158.472 74.1612Z" fill="#111314"/>
<path opacity="0.2" d="M167.241 79.1987C164.704 90.7262 162.341 103.012 160.343 116.008C158.456 128.23 157.045 139.932 155.998 151.049C157.6 150.717 159.185 150.385 160.787 150.054C160.581 145.143 160.803 140.958 161.12 137.752C161.501 133.773 162.468 124.504 166.353 115.25C166.861 114.066 167.511 112.629 168.573 109.928C170.365 105.459 171.666 101.638 172.252 99.8377C175.012 91.2473 176.391 81.2831 176.819 77.9985C173.616 78.3775 170.429 78.7881 167.241 79.1987Z" fill="#636E72"/>
<path opacity="0.19" d="M172.475 99.2692C166.258 107.339 163.356 114.65 161.897 119.561C160.565 124.03 159.979 127.978 159.217 133.094C158.139 140.358 157.727 146.485 157.552 150.843C158.599 150.591 159.63 150.322 160.676 150.069C160.502 143.958 160.93 138.731 161.453 134.657C162.088 129.825 162.817 124.219 165.354 117.476C166.274 115.029 166.718 114.334 168.811 109.044C170.429 104.907 171.666 101.512 172.475 99.2692Z" fill="#636E72"/>
<path d="M187.032 147.875C187.92 150.07 188.824 152.264 189.712 154.475C182.259 159.197 178.738 161.944 179.135 162.75C179.626 163.745 186.065 161.771 198.45 156.86C197.133 152.596 195.817 148.348 194.501 144.085C192.011 145.348 189.522 146.611 187.032 147.875Z" fill="#2D3436"/>
<path d="M180.911 74.3508C184.796 77.888 184.669 82.8465 185.161 91.0579C185.161 91.0579 186.366 111.255 190.41 127.488C191.424 131.546 193.264 137.847 196.673 145.395C196.103 146.122 194.548 147.89 191.821 148.822C189.03 149.769 186.651 149.264 185.763 149.027C180.911 140.784 177.47 133.757 175.249 128.894C164.958 106.438 164.133 94.6109 164.133 88.4365C164.133 82.0885 164.244 74.4771 168.986 71.9348C172.554 70.024 177.787 71.5084 180.911 74.3508Z" fill="#111314"/>
<path opacity="0.15" d="M169.905 76.7668C171.665 83.5097 173.568 90.3631 175.598 97.3112C180.895 115.345 186.651 132.383 192.693 148.364C193.28 148.064 193.993 147.653 194.723 147.101C195.468 146.532 196.055 145.964 196.499 145.458C195.674 143.548 194.533 140.784 193.327 137.389C191.504 132.194 188.538 122.64 187 109.913C185.525 97.6902 184.78 91.579 184.843 87.7259C184.891 84.5519 185.176 78.0933 181.053 74.6193C180.197 73.9086 179.357 73.4823 178.77 73.2296C175.804 74.414 172.855 75.5983 169.905 76.7668Z" fill="#636E72"/>
<path opacity="0.22" d="M185.034 91.8316C184.304 99.1745 184.066 109.012 185.843 120.382C187.634 131.815 190.885 141.147 193.819 147.938C194.723 147.195 195.627 146.453 196.531 145.695C195.452 143.153 194.041 139.616 192.63 135.289C189.918 126.967 188.745 120.477 187.73 114.65C186.699 108.681 185.621 100.959 185.034 91.8316Z" fill="#636E72"/>
<path d="M110.787 16.6656C110.153 16.9814 109.281 17.5341 108.599 18.4816C108.234 18.9711 107.79 19.6186 107.727 20.5344C107.711 20.8976 107.663 21.6872 108.171 22.2083C108.313 22.3662 108.694 22.6663 110.565 22.6031C112.23 22.5399 113.071 22.5083 113.499 22.0662C114.323 21.2135 114.022 19.6028 113.499 18.6395C112.674 17.1078 111.057 16.7288 110.787 16.6656Z" fill="white" stroke="#2D3436" stroke-miterlimit="10"/>
<path d="M120.365 20.6292C122.601 23.1716 126.185 24.6875 132.766 27.3878C141.06 30.7987 145.215 32.5042 150.131 33.1042C155.443 33.7517 158.282 33.0726 159.265 34.7939C160.549 37.0204 157.536 41.1893 154.428 44.6792C152.113 44.1738 149.718 43.5422 147.245 42.7211C133.686 38.2522 123.886 30.3881 117.448 23.8506C116.639 24.0243 115.259 24.198 113.689 23.7243C112.341 23.3295 110.438 22.3189 110.549 21.5135C110.692 20.5344 114.133 20.3607 114.339 20.345C113.293 19.9186 111.786 19.1922 110.153 18.0079C109.677 17.6605 106.95 15.655 107.283 15.0233C107.568 14.4706 110.042 15.2286 112.373 15.9392C114.498 16.5867 115.973 17.0446 117.59 18.15C119.144 19.1922 120.048 20.266 120.365 20.6292Z" fill="white" stroke="#2D3436" stroke-miterlimit="10"/>
<path d="M109.392 16.8393C109.772 17.2657 109.852 17.8341 110.185 18.2763C110.47 18.6711 110.882 18.9553 111.311 19.1922C112.595 19.9028 113.959 20.4871 115.275 21.1345C115.497 21.245 115.783 20.945 115.56 20.7555C114.879 20.1712 114.149 19.6501 113.388 19.1764C113.134 19.0185 112.881 19.429 113.15 19.587C113.88 20.0449 114.577 20.5344 115.227 21.0871C115.323 20.9608 115.418 20.8345 115.513 20.7081C114.26 20.1081 113.007 19.5238 111.77 18.8764C111.184 18.5763 110.66 18.2289 110.359 17.6289C110.153 17.2183 110.042 16.8235 109.725 16.4761C109.519 16.2866 109.186 16.6182 109.392 16.8393Z" fill="white"/>
<path d="M110.629 18.4974C111.358 18.8132 112.056 19.2238 112.69 19.7133C112.928 19.9028 113.261 19.5712 113.023 19.3817C112.357 18.8606 111.644 18.4342 110.866 18.0868C110.581 17.9605 110.343 18.371 110.629 18.4974Z" fill="white"/>
<path d="M108.757 16.555C109.36 17.5183 110.153 18.3079 111.088 18.9395C111.342 19.1132 111.58 18.7026 111.326 18.5289C110.454 17.9447 109.725 17.2025 109.17 16.3024C109.011 16.0655 108.599 16.3024 108.757 16.555Z" fill="white"/>
<path d="M109.471 17.8499C109.788 18.2763 110.137 18.6711 110.534 19.0185C110.819 19.2711 112.072 20.1712 111.422 20.6292C111.295 20.7081 111.422 20.9134 111.548 20.8345C111.992 20.5344 111.818 19.9975 111.548 19.6343C111.342 19.3659 111.057 19.1606 110.787 18.9237C110.375 18.5605 110.01 18.1658 109.677 17.7394C109.582 17.5973 109.376 17.7236 109.471 17.8499Z" fill="#2D3436"/>
<path d="M109.138 19.4922C109.614 20.1397 110.518 21.0556 111.406 20.7871C111.549 20.7397 111.485 20.5187 111.342 20.566C110.581 20.8029 109.741 19.9344 109.344 19.3817C109.249 19.2554 109.043 19.3659 109.138 19.4922Z" fill="#2D3436"/>
<path d="M108.44 20.5976C108.964 21.3082 109.725 21.7188 110.613 21.7661C110.771 21.7819 110.771 21.5451 110.613 21.5293C109.82 21.4819 109.122 21.1029 108.646 20.4713C108.551 20.3449 108.345 20.4713 108.44 20.5976Z" fill="#2D3436"/>
<path d="M107.933 22.0188C108.678 22.7926 109.915 22.8084 110.66 22.0188C110.771 21.9083 110.597 21.7346 110.486 21.8451C109.836 22.5399 108.757 22.5241 108.107 21.8451C107.996 21.7346 107.822 21.9083 107.933 22.0188Z" fill="#2D3436"/>
<path d="M108.091 16.5235C109.852 17.6762 111.12 19.6185 113.325 19.9975C113.467 20.0291 113.547 19.7922 113.388 19.7765C111.215 19.4133 109.947 17.4709 108.218 16.334C108.076 16.2234 107.965 16.4287 108.091 16.5235Z" fill="#2D3436"/>
<path opacity="0.2" d="M107.901 21.6872C107.33 20.9134 107.806 19.2554 109.186 17.692C110.74 18.5921 112.278 19.508 113.832 20.4081C113.546 20.4081 111.041 20.4397 110.867 21.2135C110.835 21.3398 110.867 21.5293 111.104 21.7977C111.897 22.1767 113.229 22.682 114.942 22.7294C115.83 22.7452 116.607 22.6347 117.21 22.4926C120.445 25.7455 126.138 30.6566 134.511 34.2254C141.869 37.352 148.466 38.2521 152.826 38.5048C152.684 40.3682 152.541 42.2157 152.398 44.0791C145.215 42.1841 135.478 38.5838 125.805 31.3514C122.506 28.888 119.683 26.3456 117.273 23.898C115.053 24.2612 113.673 23.8822 112.801 23.44C112.056 23.061 111.58 22.5873 110.597 22.5083C109.947 22.461 109.392 22.6189 108.678 22.2715C108.599 22.2399 108.139 22.003 107.901 21.6872Z" fill="#636E72"/>
<path opacity="0.14" d="M128.326 32.8357C130.546 34.0201 133.115 35.2202 136.049 36.2466C142.44 38.5048 148.228 39.2154 152.652 39.3733C152.589 40.984 152.541 42.6105 152.478 44.2212C147.879 43.1474 142.107 41.2682 135.985 37.8573C133.052 36.2308 130.514 34.5096 128.326 32.8357Z" fill="#636E72"/>
<path d="M153.398 37.3363C152.494 39.3733 152.446 41.063 152.367 44.0949C152.303 46.3846 152.462 48.848 153.699 55.3224C155.205 63.1548 155.919 64.4181 156.157 68.5712C156.347 71.8242 156.093 74.4929 155.855 76.2615C157.854 77.3511 161.2 78.8355 165.576 79.1671C173.315 79.7514 179.04 76.3563 181.006 75.0614C181.244 70.103 181.482 65.1287 181.736 60.1703C180.863 55.9383 179.833 52.6221 179.087 50.4429C176.74 43.5738 174.552 40.3208 175.947 36.8783C176.724 34.9676 178.263 33.7991 179.325 33.1516C178.58 32.5831 170.762 26.8194 162.23 29.8039C161.342 30.1039 155.729 32.0778 153.398 37.3363Z" fill="white" stroke="#2D3436" stroke-miterlimit="10"/>
<path opacity="0.19" d="M162.198 29.7881C164.577 33.578 165.909 36.9257 166.67 39.2628C166.67 39.2628 170.397 50.5377 167.669 65.6656C167.083 68.887 166.036 73.4664 163.974 78.7091C164.767 78.8828 165.719 79.025 166.797 79.0723C166.797 79.0723 168.462 79.1513 170.333 78.9144C172.617 78.6144 176.534 77.3985 181.149 75.0614C181.228 69.7713 181.307 64.4971 181.386 59.207C180.213 54.7381 179.024 51.1535 178.136 48.6427C175.995 42.6579 174.488 39.8471 175.725 36.8783C176.534 34.936 178.183 33.7359 179.468 33.0411C177.787 31.9357 174.679 30.2144 170.429 29.5512C166.924 29.0143 164.038 29.3933 162.198 29.7881Z" fill="#636E72"/>
<path opacity="0.11" d="M164.371 29.4249C166.924 32.5515 169.906 37.1152 171.745 43.1316C176.962 60.3124 168.383 75.3772 166.401 78.6776C168.066 78.6618 170.017 78.5196 172.142 78.1091C175.932 77.3827 178.96 76.0878 181.133 74.935C181.212 70.0082 181.292 65.0814 181.371 60.1703C180.023 55.6066 178.754 51.2799 177.026 45.4055C175.852 41.3788 174.933 38.0784 176.661 35.4413C177.502 34.1622 178.675 33.4516 179.563 33.0411C174.504 31.8251 169.43 30.625 164.371 29.4249Z" fill="#636E72"/>
<path d="M163.198 61.6862C163.15 58.3069 163.118 54.9434 163.071 51.5641C171.206 51.1535 179.341 50.7429 187.492 50.3324C187.777 53.459 188.063 56.5857 188.364 59.7123C179.975 60.3756 171.586 61.023 163.198 61.6862Z" fill="white" stroke="#2D3436" stroke-miterlimit="10"/>
<path d="M160.724 60.5809C160.724 59.3492 160.724 58.1175 160.724 56.8858C171.174 56.112 181.624 55.3224 192.075 54.5487C192.154 56.0646 192.233 57.5964 192.329 59.1123C181.799 59.586 171.253 60.0914 160.724 60.5809Z" fill="white" stroke="#2D3436" stroke-miterlimit="10"/>
<path d="M161.596 55.0224C161.723 56.8384 161.85 58.6386 161.961 60.4545C171.634 59.6808 181.291 58.8912 190.965 58.1174C191.044 56.4752 191.123 54.8329 191.218 53.1748C181.339 53.7907 171.46 54.4065 161.596 55.0224Z" fill="white" stroke="#2D3436" stroke-miterlimit="10"/>
<path d="M159.233 59.0965C159.518 66.2973 159.804 73.498 160.105 80.6988C170.889 79.4987 181.672 78.3143 192.455 77.1142C192.788 70.0398 193.121 62.9653 193.454 55.8909C182.037 56.9647 170.635 58.0227 159.233 59.0965Z" fill="white" stroke="#2D3436" stroke-miterlimit="10"/>
<path d="M161.073 61.9074C165.973 61.2599 170.873 60.802 175.804 60.5177C176.027 60.5019 176.027 60.1545 175.804 60.1545C170.873 60.4388 165.957 60.8967 161.073 61.5442C160.851 61.5757 160.851 61.9389 161.073 61.9074Z" fill="#2D3436"/>
<path d="M166.544 62.8706C170.302 62.3968 174.06 61.9073 177.834 61.4336C178.056 61.402 178.056 61.0546 177.834 61.0704C174.076 61.5441 170.318 62.0336 166.544 62.5074C166.322 62.5547 166.322 62.9021 166.544 62.8706Z" fill="#2D3436"/>
<path d="M184.606 72.9769C184.542 73.9718 184.542 74.9824 184.637 75.9773C184.653 76.1983 185.018 76.1983 185.002 75.9773C184.907 74.9824 184.891 73.9718 184.97 72.9769C184.986 72.7559 184.622 72.7559 184.606 72.9769Z" fill="#2D3436"/>
<path d="M184.764 73.0085C186.731 73.0559 188.681 72.9454 190.632 72.6927C190.568 72.6295 190.505 72.5664 190.457 72.519C190.426 73.4349 190.457 74.335 190.521 75.2351C190.536 75.4561 190.901 75.4561 190.885 75.2351C190.806 74.335 190.79 73.4191 190.822 72.519C190.822 72.4242 190.743 72.3295 190.648 72.3453C188.697 72.5979 186.746 72.6927 184.78 72.6611C184.526 72.6453 184.526 72.9927 184.764 73.0085Z" fill="#2D3436"/>
<path d="M184.907 76.2615C186.858 76.2931 188.776 76.0878 190.679 75.6614C190.901 75.614 190.806 75.2666 190.584 75.314C188.713 75.7246 186.826 75.9299 184.907 75.8983C184.685 75.8983 184.685 76.2457 184.907 76.2615Z" fill="#2D3436"/>
<path d="M185.652 74.1139C186.857 74.1929 188.047 74.1297 189.252 73.9402C189.474 73.9086 189.379 73.5612 189.157 73.5928C187.999 73.7823 186.826 73.8297 185.652 73.7507C185.43 73.7349 185.43 74.0981 185.652 74.1139Z" fill="#2D3436"/>
<path d="M186.413 75.1087C187.666 75.0771 188.871 74.8403 190.061 74.4139C190.267 74.3349 190.188 73.9875 189.966 74.0665C188.824 74.4929 187.635 74.7139 186.413 74.7613C186.191 74.7455 186.176 75.1087 186.413 75.1087Z" fill="#2D3436"/>
<path opacity="0.2" d="M164.355 79.8777C164.641 73.2138 164.926 66.5499 165.196 59.8702C174.457 59.1281 183.734 58.4017 192.995 57.6595C192.788 63.976 192.566 70.2924 192.36 76.6089C183.02 77.6985 173.696 78.7881 164.355 79.8777Z" fill="#636E72"/>
<path opacity="0.2" d="M189.506 53.3485C189.553 55.1803 189.458 57.3595 188.983 59.7755C187.809 65.713 184.986 69.9924 183.068 72.4085C184.368 74.1297 185.668 75.8509 186.984 77.5722C183.004 78.0301 179.024 78.4881 175.043 78.946C175.678 71.7136 176.312 64.4813 176.946 57.2647C176.74 56.3173 176.518 55.3698 176.312 54.4223C180.705 54.0433 185.113 53.6959 189.506 53.3485Z" fill="#636E72"/>
<path d="M178.469 32.7252C181.783 32.283 185.732 39.8628 187.302 45.3108C189.109 51.5799 188.316 56.9962 187.666 59.8544C186.398 65.4603 183.765 69.4081 182.116 71.5399C182.37 72.3768 182.956 74.6508 181.989 77.1458C180.562 80.7935 176.693 82.5464 176.391 82.2147C176.296 82.1042 176.486 81.6463 177.993 79.925C177.676 80.2566 175.392 82.5148 172.823 81.9779C172.379 81.8831 171.824 81.7726 171.507 81.3304C170.762 80.2566 171.999 77.8248 174.631 75.1245C171.761 75.8351 171 75.6456 170.857 75.3298C170.492 74.5718 173.426 72.4242 174.488 71.6347C176.058 70.4819 177.47 69.6923 178.437 69.2028C181.149 63.597 181.006 59.2228 180.768 57.1699C180.419 54.138 179.277 50.8377 179.055 50.206C178.421 48.39 178.12 47.9795 176.851 44.7107C174.805 39.468 174.805 38.5679 174.885 37.8731C175.17 35.7887 176.582 32.9779 178.469 32.7252Z" fill="white" stroke="#2D3436" stroke-miterlimit="10"/>
<path d="M171.57 80.8883C173.331 79.8934 174.869 78.6143 176.153 77.0668C176.344 76.8299 176.011 76.4983 175.82 76.7352C174.568 78.2511 173.061 79.5144 171.333 80.4935C171.063 80.6198 171.301 81.0304 171.57 80.8883Z" fill="#2D3436"/>
<path d="M173.125 81.9463C174.869 81.0462 176.36 79.7987 177.565 78.2512C177.755 78.0143 177.343 77.7775 177.153 78.0143C176.011 79.4987 174.552 80.683 172.887 81.5358C172.617 81.6779 172.855 82.0885 173.125 81.9463Z" fill="#2D3436"/>
<path opacity="0.17" d="M177.137 33.4832C173.981 36.2151 186.858 48.2006 184.653 61.8126C183.147 71.1452 176.899 77.2405 176.899 77.2405C175.155 78.9776 171.872 81.1094 172.268 81.8516C172.554 82.3885 174.536 81.8989 175.25 81.6779C176.598 81.2673 177.533 80.5725 178.057 80.1145C177.264 80.9988 176.36 82.0884 176.55 82.3095C176.82 82.5938 179.071 81.4252 180.483 79.7829C182.925 76.9405 182.576 72.9927 182.338 71.382C182.909 70.6398 183.654 69.5976 184.416 68.2712C185.113 67.0868 187.127 63.3917 187.999 58.3701C189.538 49.4797 186.382 42.4684 185.113 39.7207C183.972 37.2731 182.037 33.2147 179.103 33.041C178.723 32.9937 177.755 32.9463 177.137 33.4832Z" fill="#636E72"/>
<path opacity="0.22" d="M187.825 58.1174C186.968 60.5967 185.954 63.2022 184.748 65.9341C183.892 67.8764 183.02 69.6924 182.132 71.4136C181.688 72.8348 180.847 74.9666 179.182 77.1616C177.438 79.4671 175.519 80.8725 174.235 81.6779C174.599 81.6937 175.043 81.6621 175.535 81.5358C176.772 81.2515 177.596 80.5725 178.009 80.1619C177.533 80.762 177.041 81.3463 176.566 81.9463C176.946 81.8832 177.549 81.7726 178.215 81.4726C181.704 79.9093 182.433 75.6614 182.481 75.3772C182.608 74.6034 182.687 73.277 182.211 71.6347C183.353 70.2924 184.796 68.287 185.954 65.5867C187.238 62.6179 187.666 59.9492 187.825 58.1174Z" fill="#636E72"/>
<path d="M149.75 22.3346C147.197 25.2402 148.957 29.2985 149.195 29.8512C150.083 31.9041 152.382 34.8255 155.3 34.5886C157.425 34.3991 158.773 32.6147 159.106 32.141C161.453 28.7774 160.676 22.3504 156.712 20.6923C154.523 19.7765 151.51 20.3134 149.75 22.3346Z" fill="#0010F7"/>
<path d="M156.188 24.9244C156.299 26.1719 157.616 26.4403 158.504 28.4932C159.138 29.9776 159.138 31.4304 159.027 32.4726C160.058 32.5673 161.961 32.6147 164.117 31.7936C165.814 31.1461 167.003 30.2144 167.717 29.567C167.384 28.8248 166.892 27.7352 166.306 26.4403C163.768 20.9292 163.356 20.4555 162.738 20.2186C160.264 19.2869 155.982 22.6031 156.188 24.9244Z" fill="white" stroke="#2D3436" stroke-miterlimit="10"/>
<path d="M147.054 8.6121C146.515 9.37008 146.182 10.3018 146.134 14.2969C146.103 17.7078 146.293 20.8187 146.61 23.5821C147.324 23.1716 148.037 22.761 148.751 22.3504C149.068 23.1242 149.607 24.1822 150.527 25.2086C152.351 27.2457 154.571 27.9405 155.554 28.1932C156.585 27.9405 159.154 27.1509 161.104 24.7349C162.389 23.1242 162.801 21.5293 162.896 21.1661C163.483 18.7816 162.912 16.8077 162.611 15.9866C162.991 15.8129 163.578 15.4813 164.022 14.8812C164.958 13.6179 165.211 11.3598 164.054 10.6018C163.198 10.0333 161.675 10.3649 160.533 11.5335C160.28 10.9492 159.883 10.1438 159.249 9.30692C159.09 9.10163 157.901 7.5541 156.442 6.74875C153.635 5.13805 148.989 5.89602 147.054 8.6121Z" fill="white" stroke="#2D3436" stroke-miterlimit="10"/>
<path d="M145.896 13.5705C145.262 13.46 144.089 13.1284 143.534 12.1651C142.582 10.5386 143.978 8.05942 144.327 7.44356C144.612 6.92246 145.373 5.67495 148.608 3.41681C151.066 1.69558 152.303 0.842853 153.635 0.432282C158.361 -0.973132 162.69 1.45871 163.499 1.91665C165.196 2.87991 166.274 3.92213 167.13 4.74327C168.446 6.00657 169.921 7.45935 171.57 9.13322C175.804 14.597 177.295 19.587 177.898 22.5715C178.58 25.9508 179.277 29.3933 177.248 31.4146C175.218 33.4358 171.507 33.0253 169.239 32.062C166.084 30.7198 164.736 27.8773 163.689 25.6824C161.913 21.9241 161.802 18.3237 161.976 15.9866C163.562 15.5286 164.371 14.0443 164.006 12.9231C163.721 12.0388 162.658 11.1545 161.564 11.4703C160.724 11.7072 160.121 12.5757 160.169 13.5863C159.407 13.5705 157.378 13.3968 155.443 11.944C154.032 10.886 153.318 9.62275 152.985 8.92793C152.113 9.03847 150.368 9.35429 148.608 10.6176C147.133 11.6282 146.309 12.8441 145.896 13.5705Z" fill="#0010F7"/>
<path opacity="0.24" d="M156.394 16.5866C158.297 18.8764 158.9 21.2924 158.9 21.2924C159.518 24.0085 158.63 26.314 158.234 27.2457C159.233 26.4877 160.248 25.7297 161.247 24.9718C161.945 27.2773 162.627 29.567 163.324 31.8725C163.848 31.8251 164.926 31.6356 166.004 30.8777C166.829 30.2934 167.32 29.6144 167.59 29.188C166.306 28.0037 163.848 25.3823 162.722 21.2608C162.183 19.2711 162.103 17.5025 162.167 16.1761C163.61 15.5918 164.355 14.1864 164.054 13.0178C163.832 12.1651 162.96 11.1387 161.834 11.2966C160.898 11.4387 160.121 12.3546 160.137 13.4758C159.423 13.4758 157.742 13.3968 155.982 12.3388C154.158 11.2492 153.286 9.73328 152.953 9.08584C153.033 12.1177 153.968 13.8706 154.809 14.9128C155.364 15.6234 155.617 15.655 156.394 16.5866Z" fill="#636E72"/>
<path d="M149.021 15.9234C148.846 16.5551 148.862 17.2025 149.1 17.8184C149.179 18.0394 149.48 18.0552 149.56 17.8184C149.75 17.2499 149.75 16.6498 149.576 16.0813C149.48 15.7971 149.021 15.9076 149.116 16.2077C149.274 16.713 149.258 17.2025 149.1 17.7078C149.258 17.7078 149.401 17.7078 149.56 17.7078C149.354 17.1709 149.322 16.6182 149.48 16.0655C149.56 15.7497 149.116 15.6234 149.021 15.9234Z" fill="#2D3436"/>
<path d="M148.45 14.9444C148.862 14.6917 149.369 14.7391 149.718 15.0707C149.94 15.276 150.273 14.9444 150.051 14.7391C149.56 14.2653 148.798 14.1706 148.212 14.5338C147.958 14.6917 148.196 15.1023 148.45 14.9444Z" fill="#2D3436"/>
<path d="M150.162 18.9553C150.464 18.9553 150.464 18.4816 150.162 18.4816C149.845 18.4816 149.845 18.9553 150.162 18.9553Z" fill="#2D3436"/>
<path d="M151.209 17.5815C151.209 17.5973 151.209 17.6131 151.209 17.6288C151.209 17.7552 151.32 17.8657 151.447 17.8657C151.574 17.8657 151.685 17.7552 151.685 17.6288C151.685 17.6131 151.685 17.5973 151.685 17.5815C151.685 17.4551 151.574 17.3446 151.447 17.3446C151.32 17.3446 151.209 17.4394 151.209 17.5815Z" fill="#2D3436"/>
<path d="M151.256 18.7658C151.558 18.7658 151.558 18.2921 151.256 18.2921C150.955 18.2921 150.955 18.7658 151.256 18.7658Z" fill="#2D3436"/>
<path d="M144.723 16.6498C144.533 17.2814 144.549 17.9289 144.771 18.5447C144.85 18.7658 145.151 18.7658 145.231 18.5447C145.421 17.9763 145.437 17.3762 145.278 16.8077C145.199 16.5077 144.739 16.634 144.818 16.934C144.961 17.4394 144.945 17.9289 144.771 18.4184C144.929 18.4184 145.072 18.4184 145.231 18.4184C145.04 17.8815 145.009 17.3288 145.183 16.7761C145.262 16.4761 144.802 16.3498 144.723 16.6498Z" fill="#2D3436"/>
<path d="M144.453 15.4655C144.786 15.2918 145.246 15.3707 145.468 15.6865C145.643 15.9234 146.055 15.6865 145.881 15.4497C145.484 14.9286 144.802 14.7549 144.216 15.0549C143.946 15.197 144.184 15.6076 144.453 15.4655Z" fill="#2D3436"/>
<path d="M149.798 24.0559C151.019 23.8348 152.081 23.1873 152.874 22.2241C153.017 22.0504 152.763 21.7977 152.62 21.9714C151.875 22.8873 150.876 23.4874 149.703 23.7085C149.481 23.7558 149.576 24.1032 149.798 24.0559Z" fill="#2D3436"/>
<path d="M152.272 22.003C152.557 22.0977 152.795 22.2399 153.001 22.4452C153.16 22.6031 153.413 22.3504 153.255 22.1925C153.001 21.9398 152.7 21.7661 152.367 21.6556C152.145 21.5924 152.049 21.9398 152.272 22.003Z" fill="#2D3436"/>
<path opacity="0.45" d="M162.151 1.34815C164.165 4.1274 166.75 8.0594 169.208 13.081C171.808 18.3868 173.711 22.382 172.236 23.9611C170.286 26.0613 163.546 22.7294 162.468 22.1767C162.69 23.6137 163.245 25.9034 164.878 28.1932C165.703 29.3459 167.146 31.383 169.81 32.3304C171.412 32.8989 172.839 32.8673 173.394 32.82C174.139 32.7726 174.996 32.7094 175.931 32.2041C175.931 32.2041 177.152 31.5567 177.977 30.2302C179.23 28.2089 178.564 25.4771 177.676 22.0504C176.613 17.9447 175.186 15.2128 173.791 12.5125C173.442 11.8493 173.029 11.0755 172.363 10.1754C171.697 9.25953 171.206 8.77 169.144 6.79611C166.084 3.84316 165.608 3.4168 164.688 2.80094C163.673 2.10613 162.769 1.64818 162.151 1.34815Z" fill="#2D3436"/>
<path opacity="0.43" d="M158.329 28.209C158.456 28.5722 158.741 29.5986 158.329 30.7355C157.711 32.4252 155.998 32.9937 155.729 33.0726C153.778 33.7043 151.32 32.7094 149.671 30.5461C149.893 31.1145 150.384 32.1252 151.399 33.0095C151.907 33.4516 153.286 34.636 155.237 34.4939C155.57 34.4623 157.711 34.3044 158.694 32.4568C159.408 31.1461 159.249 29.5038 158.329 28.209Z" fill="#2D3436"/>
</svg>
