<svg width="800" height="600" viewBox="0 0 800 600" fill="none" xmlns="http://www.w3.org/2000/svg">
<path d="M734.2 339.8C728.65 387.45 723.15 435.05 717.6 482.7C716 496.25 714.45 509.8 712.85 523.4C712.75 524.35 714.25 524.35 714.35 523.4C719.9 475.75 725.4 428.15 730.95 380.5C732.55 366.95 734.1 353.4 735.7 339.8C735.8 338.85 734.3 338.85 734.2 339.8Z" fill="#DFE6E9"/>
<path d="M735.4 340.601C736.4 335.501 745.25 336.001 748.6 338.101C751.85 340.151 750.8 344.301 750.45 347.501C750.1 350.801 749.75 354.101 749.4 357.401C748 370.801 746.6 384.151 745.2 397.551C742.4 424.151 739.6 450.751 736.8 477.301C735.25 492.151 733.7 507.051 732.1 521.901C732 522.851 733.5 522.851 733.6 521.901C739.8 463.101 746.05 404.301 752.15 345.501C752.4 342.901 752.75 340.151 750.9 338.051C749.35 336.301 746.95 335.601 744.75 335.301C740.85 334.801 734.9 335.451 733.95 340.151C733.75 341.151 735.2 341.551 735.4 340.601Z" fill="#DFE6E9"/>
<path d="M729.4 378.6C719.5 376.55 718.1 390.25 714.7 396.2C709.9 404.5 701.25 410.25 691.75 411.45C691 411.55 690.65 412.7 691.55 412.9C694.75 413.7 695.35 417.6 695.65 420.35C695.95 423.2 696 426.1 695.75 428.95C695.15 435.15 693.2 441.1 690.05 446.45C689.55 447.3 690.85 448.05 691.35 447.2C692.6 445.1 695.6 445.4 697.25 446.9C699.15 448.65 699.15 451.6 698.9 453.95C698.4 458.05 696.85 461.85 697.9 466C698.05 466.65 698.9 466.7 699.25 466.2C704.5 458.85 711.8 453.3 720.3 450.25C721.2 449.95 720.8 448.5 719.9 448.8C711 452 703.45 457.75 697.95 465.45C698.4 465.5 698.85 465.55 699.3 465.65C697.8 459.6 703.1 452.25 698.95 446.7C696.85 443.85 692 443.2 690 446.5C690.45 446.75 690.85 447 691.3 447.25C695 440.9 697.15 433.75 697.35 426.4C697.5 421.8 697.7 412.9 691.9 411.5C691.85 412 691.75 412.5 691.7 412.95C699.75 411.95 707.2 407.95 712.5 401.8C715.05 398.85 717 395.45 718.35 391.75C720.05 387 722.2 378.65 729 380.05C729.95 380.25 730.35 378.8 729.4 378.6Z" fill="#DFE6E9"/>
<path d="M739.5 343.15C741.4 344.5 743.8 344.8 745.95 343.95C746.85 343.6 746.45 342.15 745.55 342.5C743.7 343.2 741.85 343 740.25 341.85C739.5 341.3 738.75 342.6 739.5 343.15Z" fill="#DFE6E9"/>
<path d="M740.25 346.2C741.2 347.8 743.25 348.6 745 347.9C745.9 347.55 745.5 346.1 744.6 346.45C743.45 346.9 742.15 346.55 741.55 345.45C741.05 344.6 739.8 345.35 740.25 346.2Z" fill="#DFE6E9"/>
<path d="M673.7 526.301C682.15 525.401 691.5 523.201 699.9 525.401C703.7 526.401 707.4 527.901 711.25 528.851C715.5 529.901 719.9 530.501 724.2 531.151C725.15 531.301 725.549 529.851 724.599 529.701C720.249 529.051 715.9 528.401 711.65 527.401C707.5 526.401 703.6 524.701 699.45 523.751C691.2 521.751 682.05 523.901 673.75 524.801C672.75 524.901 672.75 526.451 673.7 526.301Z" fill="#DFE6E9"/>
<path d="M718.998 525.8C725.398 526.3 731.448 524.35 737.598 522.95C744.498 521.4 751.498 520.85 758.548 521.3C759.498 521.35 759.498 519.85 758.548 519.8C751.998 519.4 745.498 519.8 739.098 521.1C732.448 522.45 725.948 524.85 719.048 524.3C717.998 524.2 717.998 525.7 718.998 525.8Z" fill="#DFE6E9"/>
<path d="M678.248 289.001C671.598 331.301 664.948 373.601 658.248 415.951C656.348 427.951 654.448 440.001 652.548 452.001C652.398 452.951 653.848 453.351 653.998 452.401C660.648 410.101 667.298 367.801 673.998 325.451C675.898 313.451 677.798 301.401 679.698 289.401C679.848 288.451 678.398 288.051 678.248 289.001Z" fill="#DFE6E9"/>
<path d="M664.098 291.351C656.448 333.601 649.049 375.901 641.899 418.201C639.899 430.151 637.899 442.051 635.899 454.001C635.749 454.951 637.199 455.351 637.349 454.401C644.399 412.051 651.649 369.751 659.149 327.451C661.249 315.551 663.398 303.651 665.548 291.701C665.748 290.801 664.298 290.401 664.098 291.351Z" fill="#DFE6E9"/>
<path d="M665.149 290.9C667.699 285.5 674.399 284.35 678.549 288.7C679.199 289.4 680.299 288.35 679.599 287.65C674.799 282.65 666.799 283.9 663.849 290.2C663.449 291 664.749 291.75 665.149 290.9Z" fill="#DFE6E9"/>
<path d="M658.75 313.35C657 320.35 649.65 323.25 643.5 325.3C637.85 327.2 632 329.25 628.35 334.25C627.85 334.95 628.8 335.55 629.4 335.3C633.7 333.45 632.5 340.8 632.05 342.6C631.4 345 630.45 347.3 629.25 349.45C629 349.85 629.2 350.45 629.7 350.55C632.45 351.15 631 355.3 630.4 357C629.4 359.8 628.35 362.55 627.35 365.35C625.3 370.9 623.3 376.45 621.25 382C621.05 382.6 621.65 383.05 622.15 382.9C623.1 382.7 623.75 382.25 624.45 381.6C625.1 381 625.8 380.25 626.65 379.95C627.6 379.65 628.65 379.85 629.65 379.9C632.5 380 635.35 379.65 638 378.65C643.1 376.75 647.35 373.05 649.85 368.2C650.3 367.35 649 366.6 648.55 367.45C645.9 372.6 641.15 376.4 635.55 377.85C632.7 378.6 630.05 378.05 627.25 378.35C624.8 378.6 624 381 621.75 381.45C622.05 381.75 622.35 382.05 622.65 382.35C625.35 374.95 628.1 367.55 630.8 360.15C631.8 357.4 635.05 350.15 630.1 349.05C630.25 349.4 630.4 349.8 630.55 350.15C632.55 346.6 634.8 341.65 634.15 337.45C633.75 334.75 631.35 332.8 628.65 333.95C629 334.3 629.35 334.65 629.7 335C637.25 324.75 656.75 327.9 660.3 313.75C660.4 312.8 659 312.4 658.75 313.35Z" fill="#DFE6E9"/>
<path d="M619.849 458C625.749 458.65 630.899 454.55 636.849 455.4C642.299 456.15 647.249 459.1 652.849 458.85C653.799 458.8 653.799 457.3 652.849 457.35C647.149 457.6 642.099 454.5 636.549 453.85C630.699 453.2 625.649 457.15 619.849 456.5C618.899 456.4 618.899 457.9 619.849 458Z" fill="#DFE6E9"/>
<path d="M651.05 362.75C650.1 364.75 648.95 366.6 647.55 368.35C646.95 369.1 648 370.15 648.6 369.4C650.1 367.6 651.35 365.65 652.3 363.5C652.75 362.65 651.45 361.9 651.05 362.75Z" fill="#DFE6E9"/>
<path d="M439.4 448.151C459.2 443.251 479.85 446.751 499.85 448.001C520.85 449.301 541.9 449.501 562.95 449.301C574.9 449.201 586.8 448.951 598.75 448.751C599.7 448.751 599.7 447.251 598.75 447.251C577.4 447.651 556 448.051 534.65 447.751C524.05 447.601 513.45 447.251 502.9 446.651C492.65 446.051 482.45 445.001 472.2 444.451C461.1 443.851 449.9 444.001 439.05 446.701C438.1 446.901 438.5 448.351 439.4 448.151Z" fill="#DFE6E9"/>
<path d="M604.25 474.2C619.6 476.45 634.7 472.35 649.95 471.25C665.8 470.1 681.65 472.45 697.1 476.1C698.05 476.3 698.45 474.9 697.5 474.65C682.6 471.15 667.25 468.8 651.85 469.65C636.1 470.5 620.45 475.1 604.65 472.8C603.7 472.6 603.3 474.05 604.25 474.2Z" fill="#DFE6E9"/>
<path d="M103.449 447.851C121.949 446.051 140.349 447.251 158.549 451.001C166.999 452.751 175.499 454.601 184.199 454.501C192.649 454.401 201.049 452.801 209.349 451.401C219.349 449.701 229.499 448.251 239.599 449.901C240.549 450.051 240.949 448.601 239.999 448.451C222.849 445.601 206.149 451.551 189.199 452.801C179.699 453.501 170.549 451.951 161.299 450.051C152.549 448.251 143.799 446.751 134.849 446.051C124.399 445.251 113.899 445.351 103.449 446.401C102.499 446.401 102.499 447.901 103.449 447.851Z" fill="#DFE6E9"/>
<path d="M48.5499 327.5C63.5499 323.65 78.5999 319.8 93.9499 317.6C109.25 315.4 124.5 315.35 139.8 317.3C169.25 321.1 198.45 328.25 227.15 335.85C283.6 350.9 338.9 369.95 395.3 385.2C427.15 393.8 459.35 401.2 492 405.85C492.95 406 493.35 404.55 492.4 404.4C433.8 396 377 378.95 320.5 361.7C264.1 344.45 207.4 326.45 149 317.1C132.2 314.4 115.45 313.4 98.4499 315.45C81.3999 317.5 64.6999 321.75 48.0999 326C47.1999 326.3 47.5999 327.75 48.5499 327.5Z" fill="#DFE6E9"/>
<path d="M342.4 369.601C377.35 369.751 411.95 364.201 446.15 357.401C480.55 350.551 514.75 342.401 549.55 337.451C569.35 334.601 589.3 332.901 609.3 333.001C610.25 333.001 610.25 331.501 609.3 331.501C574.35 331.301 539.75 336.851 505.55 343.601C471.15 350.451 436.95 358.601 402.15 363.601C382.35 366.451 362.4 368.201 342.4 368.101C341.4 368.101 341.4 369.601 342.4 369.601Z" fill="#DFE6E9"/>
<path d="M685.799 341.051C696.849 344.851 707.549 349.601 717.749 355.301C718.599 355.751 719.349 354.501 718.499 354.001C708.149 348.251 697.349 343.451 686.149 339.601C685.299 339.301 684.899 340.751 685.799 341.051Z" fill="#DFE6E9"/>
<path d="M30.349 395.401C35.849 405.201 37.999 416.451 36.649 427.601C36.599 428.001 37.049 428.351 37.399 428.351C39.099 428.251 42.049 428.351 43.299 429.751C44.449 431.001 43.299 432.401 42.549 433.451C41.549 434.851 40.249 436.301 40.249 438.101C40.249 439.101 40.649 439.901 40.999 440.801C41.799 442.651 42.249 444.401 42.599 446.401C43.049 449.101 43.549 451.701 44.649 454.201C48.949 464.101 58.699 470.401 67.549 475.901C68.349 476.401 69.149 475.101 68.299 474.601C58.499 468.501 47.149 461.201 44.599 449.101C43.949 446.001 43.549 443.051 42.349 440.051C40.999 436.851 43.449 435.401 44.799 432.851C47.349 428.201 40.999 426.651 37.449 426.851C37.699 427.101 37.949 427.351 38.199 427.601C39.599 416.201 37.299 404.701 31.699 394.651C31.199 393.801 29.899 394.551 30.349 395.401Z" fill="#DFE6E9"/>
<path d="M32.9499 395.501C38.0499 398.501 43.1999 401.551 48.2999 404.551C50.3499 405.751 54.2999 407.701 53.3999 410.551C52.8999 412.151 51.0999 412.801 51.1499 414.651C51.1499 415.151 51.5999 415.501 52.0999 415.351C56.0999 414.301 57.7499 419.001 59.2999 421.651C60.5999 423.851 62.4999 425.401 64.2999 427.201C67.8999 430.851 70.7999 435.101 72.9999 439.701C77.5499 449.201 78.8499 460.151 76.4999 470.401C76.2999 471.351 77.7499 471.751 77.9499 470.801C80.4999 459.601 78.8999 447.751 73.5999 437.551C70.8999 432.301 67.2499 428.001 63.0499 423.901C59.6999 420.651 57.8999 412.251 51.6999 413.851C51.9999 414.101 52.3499 414.351 52.6499 414.551C52.5999 413.401 54.2499 412.551 54.7999 411.651C55.1499 411.001 55.2999 410.401 55.2499 409.651C55.0999 407.701 53.3999 406.051 51.8999 404.901C49.1999 402.851 45.9999 401.301 43.0499 399.601C39.9499 397.751 36.7999 395.901 33.6999 394.051C32.8499 393.701 32.0999 395.001 32.9499 395.501Z" fill="#DFE6E9"/>
<path d="M41.5491 409.7C54.7491 427.85 64.5491 448.25 70.4491 469.85C70.6991 470.8 72.1491 470.4 71.8991 469.45C65.9491 447.7 56.1491 427.15 42.8491 408.95C42.2991 408.15 40.9991 408.9 41.5491 409.7Z" fill="#DFE6E9"/>
<path d="M62.1984 421.401C62.8984 404.551 76.3484 391.551 77.5984 374.751C77.0984 374.801 76.5984 374.901 76.1484 374.951C77.4984 379.151 78.8484 383.351 80.2484 387.551C81.0984 390.101 86.1984 401.551 80.4484 401.401C79.6984 401.401 79.4484 402.401 80.0484 402.801C82.2984 404.251 81.8484 407.251 81.9984 409.601C82.0984 411.601 82.5484 413.301 83.3484 415.151C85.9484 420.901 86.4984 426.501 85.6484 432.701C84.8484 438.451 83.2484 444.051 81.8484 449.651C80.3484 455.751 78.8484 461.901 77.3484 468.001C77.0984 468.951 78.5484 469.351 78.7984 468.401C80.4484 461.651 82.1484 454.901 83.7984 448.101C85.2984 442.051 86.9984 436.001 87.4984 429.751C87.6984 427.001 87.6484 424.201 87.1484 421.451C86.5984 418.351 85.0484 415.801 84.0984 412.851C82.8984 409.151 84.6984 403.901 80.8484 401.451C80.6984 401.901 80.5984 402.401 80.4484 402.851C85.6984 403.001 84.8984 396.901 83.8484 393.651C81.7984 387.301 79.6984 380.901 77.6484 374.551C77.3984 373.751 76.2484 373.901 76.1984 374.751C74.9984 391.501 61.4984 404.501 60.7984 421.401C60.6484 422.351 62.1484 422.351 62.1984 421.401Z" fill="#DFE6E9"/>
<path d="M76.8991 388.45C73.9991 401.35 71.8491 414.45 70.4991 427.6C70.3991 428.55 71.8991 428.55 71.9991 427.6C73.3491 414.55 75.4991 401.65 78.3491 388.85C78.5491 387.9 77.0991 387.5 76.8991 388.45Z" fill="#DFE6E9"/>
<path d="M50.6493 445.201C56.0493 446.201 60.8493 448.751 64.6993 452.651C65.3993 453.351 66.4493 452.301 65.7493 451.601C61.7493 447.501 56.6993 444.801 51.0493 443.751C50.0993 443.601 49.6993 445.051 50.6493 445.201Z" fill="#DFE6E9"/>
<path d="M58.0995 432.65C58.5995 428.6 59.1495 424.6 59.6495 420.55C59.7495 419.6 58.2495 419.6 58.1495 420.55C57.6495 424.6 57.0995 428.6 56.5995 432.65C56.4995 433.6 57.9995 433.6 58.0995 432.65Z" fill="#DFE6E9"/>
<path d="M69.0982 403.55C70.6482 405.6 71.6982 407.8 72.2482 410.3C72.4482 411.25 73.8982 410.85 73.6982 409.9C73.0982 407.3 71.9982 404.9 70.3982 402.8C69.7982 402.05 68.4982 402.75 69.0982 403.55Z" fill="#DFE6E9"/>
<path d="M461.648 416.3C461.948 419.5 461.848 422.7 461.498 425.9C461.448 426.2 461.748 426.6 462.048 426.6C463.398 426.8 464.748 427 466.148 427.15C465.998 426.8 465.848 426.4 465.698 426.05C465.198 427.25 463.748 429.15 464.448 430.45C464.898 431.25 466.048 431.5 466.498 432.45C467.048 433.6 466.898 434.95 467.398 436.1C469.398 440.4 476.948 437.8 478.148 442.35C478.398 443.3 479.848 442.9 479.598 441.95C478.598 438.05 474.298 438.4 471.198 437.35C467.898 436.25 468.948 433.2 467.398 430.85C467.048 430.35 466.048 429.95 465.848 429.55C465.648 429.15 466.698 427.4 466.998 426.8C467.148 426.4 467.098 425.75 466.548 425.7C465.198 425.5 463.848 425.3 462.448 425.15C462.648 425.4 462.798 425.65 462.998 425.85C463.398 422.65 463.448 419.45 463.148 416.25C463.048 415.35 461.548 415.35 461.648 416.3Z" fill="#DFE6E9"/>
<path d="M463.298 418.101C467.548 420.051 472.198 421.651 476.098 424.251C481.098 427.601 481.798 432.551 481.748 438.201C481.748 439.151 483.248 439.151 483.248 438.201C483.248 433.101 482.898 428.001 478.798 424.451C474.698 420.851 468.948 419.051 464.048 416.801C463.198 416.401 462.448 417.701 463.298 418.101Z" fill="#DFE6E9"/>
<path d="M467.548 425.9C473.098 429.55 477.298 434.65 479.948 440.75C480.348 441.65 481.598 440.85 481.248 440C478.548 433.65 474.098 428.4 468.348 424.65C467.498 424.1 466.748 425.4 467.548 425.9Z" fill="#DFE6E9"/>
<path d="M482.049 426.851C481.649 425.301 480.949 423.351 481.749 421.851C482.399 420.651 483.649 420.401 484.699 419.701C486.249 418.701 486.599 416.351 487.349 414.851C487.849 413.851 488.799 411.901 489.799 411.301C491.249 410.401 492.449 412.001 492.849 413.401C493.249 414.801 492.999 416.151 492.499 417.501C492.249 418.151 491.849 418.701 491.899 419.451C491.949 420.001 492.099 420.301 492.399 420.801C493.249 422.101 494.149 422.951 494.299 424.651C494.499 427.551 492.999 430.051 491.199 432.201C488.449 435.501 485.099 438.201 483.899 442.501C483.649 443.451 485.099 443.851 485.349 442.901C487.149 436.601 494.449 433.551 495.649 427.001C496.099 424.601 495.449 422.951 494.449 420.851C493.499 418.801 494.049 418.151 494.399 416.251C494.599 415.201 494.549 414.051 494.249 413.001C493.849 411.451 492.449 409.101 490.549 409.151C488.649 409.151 486.999 412.401 486.249 413.751C485.499 415.101 485.099 417.251 483.949 418.201C483.049 418.951 481.999 419.051 481.149 419.901C479.249 421.951 479.899 424.851 480.549 427.251C480.899 428.151 482.349 427.801 482.049 426.851Z" fill="#DFE6E9"/>
<path d="M488.398 420.3C485.798 426.1 483.548 432.05 481.748 438.15C481.448 439.1 482.898 439.45 483.198 438.55C484.948 432.6 487.148 426.75 489.698 421.1C490.098 420.2 488.798 419.4 488.398 420.3Z" fill="#DFE6E9"/>
<path d="M92.9989 439.5C107.549 434.65 123.399 435.1 137.649 440.85C138.549 441.2 138.949 439.75 138.049 439.4C123.549 433.6 107.399 433.15 92.5989 438.05C91.6989 438.4 92.0989 439.85 92.9989 439.5Z" fill="#DFE6E9"/>
<path d="M588.4 156.65C610.905 156.65 629.15 138.675 629.15 116.5C629.15 94.3261 610.905 76.3503 588.4 76.3503C565.894 76.3503 547.65 94.3261 547.65 116.5C547.65 138.675 565.894 156.65 588.4 156.65Z" stroke="#DFE6E9" stroke-width="2" stroke-miterlimit="10"/>
<path d="M102.799 197.55C99.6495 192.45 107.149 188.3 111.399 188.65C116.649 189.1 121.349 192.15 126.649 192.45C135.299 193 142.549 187.15 150.099 183.95C154.749 182 159.399 181.3 164.299 182.55C169.099 183.8 173.449 186.25 178.199 187.6C182.349 188.8 186.399 188.85 190.599 187.75C195.299 186.55 199.649 184.3 204.399 183.15C209.499 181.9 213.949 182.75 218.299 185.55C221.949 187.9 225.299 191 229.549 192.3C234.049 193.7 241.899 192 244.099 197.35C246.399 202.9 238.049 205.1 234.249 205.6C228.349 206.3 222.349 206.45 216.449 205.95C210.699 205.5 205.099 204.1 199.349 203.95C194.049 203.8 189.549 205.25 184.999 207.9C180.199 210.75 175.649 213.2 169.949 213.8C157.799 215.1 145.899 210.5 133.799 210.65C126.999 210.7 119.899 212.5 113.199 210.6C107.599 209 101.949 203.75 103.299 197.5C103.499 196.55 102.049 196.15 101.849 197.1C100.899 201.6 102.899 205.7 106.349 208.6C110.599 212.15 115.899 213.05 121.299 212.95C127.849 212.8 134.199 211.9 140.749 212.55C146.849 213.2 152.899 214.45 158.999 215.15C164.599 215.75 170.449 215.85 175.899 214.2C181.699 212.4 186.199 208.05 191.999 206.35C198.599 204.4 205.549 206.25 212.199 207.1C218.899 207.95 225.699 208.05 232.399 207.4C236.549 207 241.399 206.35 244.399 203.1C246.949 200.3 246.299 196.4 243.349 194.15C238.899 190.75 232.749 192.45 227.849 190.1C223.349 187.95 219.799 184.15 215.099 182.25C204.749 178.05 195.399 186.85 185.199 187.2C179.499 187.4 174.299 184.65 169.149 182.65C164.399 180.85 159.599 179.8 154.599 180.95C149.299 182.15 144.649 185.05 139.849 187.45C133.799 190.45 128.149 191.95 121.499 189.9C116.249 188.3 110.549 185.5 105.249 188.5C101.799 190.45 99.1495 194.5 101.499 198.3C101.999 199.15 103.299 198.4 102.799 197.55Z" fill="#DFE6E9"/>
<path d="M360.549 126.75C364.549 118.5 375.499 124.7 381.299 126.55C388.799 128.95 394.999 125.55 401.699 122.45C405.849 120.5 409.949 119.35 414.549 119.6C419.249 119.9 423.849 121.2 428.499 121.85C437.349 123.05 445.599 120.25 454.199 118.8C458.799 118.05 463.499 117.9 468.099 118.4C470.449 118.65 472.799 119.05 475.099 119.65C477.249 120.2 479.899 120.7 481.799 121.85C487.599 125.3 479.899 131.1 476.299 132.15C472.599 133.25 468.649 133 464.899 132.35C460.549 131.6 456.249 130.35 451.849 130.2C447.699 130 443.949 131.1 440.149 132.6C435.749 134.35 431.549 136.05 426.749 136.1C422.049 136.15 417.299 135.5 412.599 135.25C401.799 134.75 390.949 135 380.199 136C375.049 136.5 369.799 137.7 364.649 137.75C362.099 137.8 359.399 137.25 357.499 135.45C356.399 134.35 355.599 132.9 355.849 131.3C356.149 129.35 357.749 127.5 359.949 127.85C360.899 128 361.299 126.55 360.349 126.4C357.299 125.95 354.699 128.15 354.299 131.2C353.899 134.5 356.599 137.3 359.499 138.45C363.999 140.25 369.249 138.8 373.849 138.25C379.549 137.55 385.249 137.05 390.999 136.8C396.749 136.55 402.449 136.45 408.199 136.65C413.899 136.8 419.599 137.45 425.299 137.65C430.499 137.8 434.999 136.3 439.749 134.4C445.299 132.2 450.299 131.25 456.249 132.25C464.199 133.55 473.449 136.75 480.849 131.8C483.399 130.1 485.999 126.85 485.099 123.6C484.099 119.85 478.149 118.95 475.049 118.2C470.249 117.05 465.299 116.55 460.349 116.75C455.049 117 449.899 118.2 444.749 119.3C438.949 120.55 433.299 121.2 427.399 120.25C422.399 119.45 417.399 118 412.249 118.15C401.549 118.4 393.049 128.65 382.049 125.35C377.349 123.95 372.999 121.15 367.899 121.25C364.349 121.35 360.799 122.75 359.199 126.1C358.849 126.85 360.149 127.6 360.549 126.75Z" fill="#DFE6E9"/>
<path d="M582.599 201.901C595.249 194.851 610.199 198.401 623.949 198.101C630.799 197.951 636.899 196.401 643.399 194.301C647.099 193.101 650.749 192.251 654.649 192.251C658.499 192.201 662.299 192.701 666.149 192.901C669.399 193.051 672.699 193.051 675.849 192.251C677.399 191.901 678.849 191.251 680.349 190.901C683.749 190.151 685.349 192.651 685.449 195.751C685.649 203.401 677.949 207.651 671.399 208.801C663.499 210.151 655.299 209.151 647.349 208.901C639.799 208.701 632.449 209.401 624.999 210.751C616.399 212.301 607.749 214.251 598.949 214.051C594.799 213.951 590.649 213.401 586.699 212.101C584.749 211.451 582.699 210.651 580.949 209.501C579.099 208.301 576.399 204.151 580.199 203.351C581.149 203.151 580.749 201.701 579.799 201.901C577.649 202.351 576.499 204.551 576.899 206.701C577.499 209.701 580.849 211.351 583.399 212.451C590.699 215.651 598.849 216.051 606.699 215.301C615.999 214.451 624.999 211.951 634.299 210.901C643.899 209.801 653.499 211.001 663.149 210.951C670.349 210.901 678.799 210.151 683.799 204.251C685.699 202.001 686.999 199.151 687.049 196.151C687.099 193.751 686.349 190.601 683.899 189.601C680.749 188.301 676.949 190.701 673.849 191.201C669.299 191.901 664.599 191.301 660.049 191.001C655.999 190.701 651.949 190.651 647.949 191.551C643.499 192.551 639.299 194.401 634.849 195.451C617.449 199.551 598.299 191.551 581.949 200.701C580.999 201.101 581.749 202.401 582.599 201.901Z" fill="#DFE6E9"/>
<path d="M62.5481 507.251C81.0981 501.951 99.8981 496.701 119.198 495.101C128.898 494.301 138.698 494.451 148.348 496.101C157.598 497.701 166.298 500.851 174.798 504.701C184.148 508.851 193.298 513.501 203.048 516.551C203.948 516.851 204.348 515.401 203.448 515.101C185.348 509.401 169.298 498.601 150.548 495.001C131.948 491.401 112.848 493.501 94.4981 497.401C83.5981 499.751 72.8481 502.751 62.1481 505.801C61.2481 506.051 61.6481 507.501 62.5481 507.251Z" fill="#DFE6E9"/>
<path d="M177.55 503.6C192 501.85 206.35 500.55 220.85 502.25C235.15 503.95 249.1 508.05 262.1 514.25C262.95 514.65 263.75 513.35 262.85 512.95C250.15 506.9 236.6 502.8 222.65 501C207.55 499 192.6 500.3 177.55 502.1C176.6 502.2 176.6 503.7 177.55 503.6Z" fill="#DFE6E9"/>
<path d="M241.249 513.801C248.449 515.901 255.599 518.101 262.799 520.051C268.999 521.701 275.449 522.751 281.699 520.601C282.599 520.301 282.199 518.851 281.299 519.151C274.749 521.451 267.949 519.951 261.449 518.101C254.849 516.251 248.249 514.251 241.649 512.351C240.749 512.101 240.349 513.551 241.249 513.801Z" fill="#DFE6E9"/>
<path d="M180.248 517.1C195.898 517.85 210.598 527.8 226.498 524.2C227.448 524 227.048 522.55 226.098 522.75C210.448 526.3 195.698 516.35 180.248 515.6C179.298 515.55 179.298 517.05 180.248 517.1Z" fill="#DFE6E9"/>
<path d="M40.1497 520.3C51.7997 517 63.4497 513.7 75.0997 510.4C76.0497 510.15 75.6497 508.7 74.6997 508.95C63.0497 512.25 51.3997 515.55 39.7497 518.85C38.7997 519.1 39.1997 520.55 40.1497 520.3Z" fill="#DFE6E9"/>
<path d="M70.7993 517.45C81.4493 514.6 92.2493 512.2 103.099 510.3C104.049 510.15 103.649 508.7 102.699 508.85C91.8493 510.8 81.0493 513.15 70.3993 516C69.4493 516.3 69.8493 517.7 70.7993 517.45Z" fill="#DFE6E9"/>
<path d="M297.601 474.9C336.301 474.9 375.001 474.9 413.751 474.9C416.651 474.9 416.651 470.4 413.751 470.4C375.051 470.4 336.351 470.4 297.601 470.4C294.701 470.4 294.701 474.9 297.601 474.9Z" fill="#2D3436"/>
<path d="M428.55 475.75C436.5 475.75 444.45 475.75 452.45 475.75C455.35 475.75 455.35 471.25 452.45 471.25C444.5 471.25 436.55 471.25 428.55 471.25C425.65 471.25 425.65 475.75 428.55 475.75Z" fill="#2D3436"/>
<path d="M468.05 474.9C471.6 474.9 475.2 474.9 478.75 474.9C481.65 474.9 481.65 470.4 478.75 470.4C475.2 470.4 471.6 470.4 468.05 470.4C465.15 470.4 465.15 474.9 468.05 474.9Z" fill="#2D3436"/>
<path d="M462.3 511.951C498.4 511.951 534.55 511.951 570.65 511.951C580.9 511.951 591.2 511.951 601.45 511.951C604.35 511.951 604.35 507.451 601.45 507.451C565.35 507.451 529.2 507.451 493.1 507.451C482.85 507.451 472.55 507.451 462.3 507.451C459.4 507.451 459.4 511.951 462.3 511.951Z" fill="#2D3436"/>
<path d="M613.001 511.15C620.701 511.15 628.351 511.15 636.051 511.15C638.951 511.15 638.951 506.65 636.051 506.65C628.351 506.65 620.701 506.65 613.001 506.65C610.101 506.65 610.101 511.15 613.001 511.15Z" fill="#2D3436"/>
<path d="M647.601 511.951C650.601 511.951 653.651 511.951 656.651 511.951C659.551 511.951 659.551 507.451 656.651 507.451C653.651 507.451 650.601 507.451 647.601 507.451C644.701 507.451 644.701 511.951 647.601 511.951Z" fill="#2D3436"/>
<path d="M137.05 87.35C139.55 88.7 141.85 90.35 143.95 92.3C144.65 92.95 145.7 91.9 145 91.25C142.85 89.2 140.45 87.5 137.8 86.1C136.95 85.6 136.2 86.9 137.05 87.35Z" fill="#2D3436"/>
<path d="M147.151 83.8C146.201 81.65 145.251 79.55 144.301 77.4C143.901 76.5 142.601 77.3 143.001 78.15C143.951 80.3 144.901 82.4 145.851 84.55C146.251 85.45 147.551 84.7 147.151 83.8Z" fill="#2D3436"/>
<path d="M153.6 80.3503C152.7 77.7003 152.4 75.0503 152.8 72.2503C152.9 71.3003 151.4 71.3003 151.3 72.2503C150.95 75.1503 151.2 78.0003 152.2 80.7503C152.45 81.6503 153.9 81.2503 153.6 80.3503Z" fill="#2D3436"/>
<path d="M324.85 109.1C326.7 109.95 328.75 110 330.6 108.95C333.15 107.5 333.25 105.05 333.85 102.45C334.05 101.5 334.35 100.35 335.1 99.7001C336.65 98.3501 337.2 99.3001 338.45 99.6501C339.25 99.8501 340 99.9001 340.75 99.5501C342.2 98.9001 345.8 92.0501 347.45 94.3001C348.05 95.0501 349.35 94.3001 348.75 93.5501C347.55 92.0001 345.85 92.1501 344.3 93.2001C343.25 93.9001 342.75 94.9001 342.1 95.9001C341.75 96.5001 341.3 97.3001 340.75 97.7501C339.2 98.9001 338.6 97.9001 337.25 97.6501C335.15 97.2501 333.55 98.6501 332.8 100.55C332.15 102.1 332.3 103.85 331.7 105.45C330.7 107.9 328 109 325.6 107.85C324.7 107.4 323.95 108.7 324.85 109.1Z" fill="#2D3436"/>
<path d="M332.35 113.9C334 115.1 335.9 114.3 337.15 112.9C339.35 110.3 337.8 105.9 341.25 104.25C343.8 103 346.75 103.55 349.2 101.8C351.35 100.25 352.5 97.8503 352.7 95.2503C352.75 94.3003 351.25 94.3003 351.2 95.2503C351 98.3003 349 100.8 346.05 101.65C344.15 102.2 342.05 102.1 340.3 103C338.85 103.75 338 105.05 337.6 106.6C337.3 107.65 337.25 108.8 337 109.85C336.6 111.35 335.1 114.05 333.15 112.6C332.35 112.05 331.6 113.35 332.35 113.9Z" fill="#2D3436"/>
<path d="M338.199 418.45C342.999 422.55 347.899 426.65 352.899 430.75C357.699 434.7 362.499 438.6 367.249 442.35C369.399 448.95 368.449 452.9 367.099 455.25C364.749 459.4 360.949 459.45 354.699 465.45C351.499 468.5 347.799 472.1 348.499 474.2C349.349 476.75 356.849 477.95 383.499 473.45C388.999 462.05 394.499 450.65 399.999 439.25C387.949 426.75 375.849 414.2 363.799 401.7C355.249 407.3 346.749 412.9 338.199 418.45Z" fill="#2D3436"/>
<path d="M284.1 300.2C278.65 313.35 284.3 327.95 293.2 350.8C296.9 360.3 300.75 367.45 302.75 371.1C306.7 378.35 309 381.5 325.15 404.25C338 422.35 339.25 424.2 343 425.4C355.9 429.55 376.8 418.95 377 405.1C377.15 395.4 367.05 388.4 365.4 387.25C359.25 378.6 355.4 370.7 352.95 364.85C348.7 354.6 344.149 343.7 345.049 330C345.849 318.2 349.8 317.5 349.6 307.2C349.55 305.6 348.95 286.35 337.15 278.6C321.75 268.55 292 281.2 284.1 300.2Z" fill="#F7FAFC" stroke="#636E72" stroke-miterlimit="10"/>
<path opacity="0.47" d="M348.95 302.45C349.75 304.65 349.1 308.8 347.8 317.05C346.35 326.25 345.3 326.8 344.8 331.65C343.95 339.75 346 345.8 349.9 357.35C350.95 360.4 353.15 365.25 357.55 374.95C360.6 381.65 362.1 384.65 365.45 387.45C368.15 389.7 369.25 389.6 371.45 391.85C374.6 395.1 376.7 399.95 376.8 404.35C377 414.3 367.25 422.3 358.75 424.95C351.25 427.3 344.6 425.5 341.6 424.5C335.7 417.5 327.55 407.4 318.65 394.6C307.1 378 300.65 368.8 295.7 355.9C289.7 340.3 280.15 315.45 292.45 301.2C307 284.45 344.75 291.15 348.95 302.45Z" fill="#636E72"/>
<path opacity="0.37" d="M316.049 324C322.199 328.85 321.249 337.2 322.549 349.5C324.049 363.65 327.849 376.85 331.599 385.2C342.349 409.2 363.399 417.5 360.349 423.45C358.649 426.75 350.449 427.55 344.599 425.75C342.449 425.1 340.799 424.15 339.749 423.45C330.499 411.45 323.349 401.2 318.449 394C293.249 357.1 290.599 345.05 292.749 335.15C293.349 332.4 294.899 325.15 300.849 322.2C305.599 319.75 311.999 320.8 316.049 324Z" fill="#636E72"/>
<path opacity="0.47" d="M332.2 323.45C328.7 330.95 324.85 336.05 322.1 339.3C315.25 347.3 310 349.5 306.25 357.1C303.65 362.45 303.2 367.55 303.15 370.75C301.6 368.3 300.05 365.65 298.55 362.85C295.2 356.5 292.7 350.5 290.85 345.05C304.65 337.85 318.4 330.65 332.2 323.45Z" fill="#636E72"/>
<path d="M241.402 414.2C246.202 418.3 251.102 422.4 256.102 426.5C260.902 430.45 265.702 434.35 270.452 438.1C268.852 439.9 266.352 442.65 263.302 445.95C257.652 452 256.152 453.25 254.402 456.2C253.552 457.65 248.852 465.7 251.352 468.85C254.652 473 269.802 467.25 279.702 461C285.752 457.15 295.452 449.55 303.252 435.05C291.202 422.55 279.102 410 267.052 397.5C258.452 403.05 249.902 408.65 241.402 414.2Z" fill="#2D3436"/>
<path d="M286.201 295.05C278.201 300 271.751 304.9 249.701 325.05C213.951 357.65 210.551 363.3 209.501 371.05C207.751 383.9 213.051 397.95 222.751 406.85C225.151 409.05 234.901 417.95 248.351 416.75C259.601 415.75 274.601 407.6 273.951 396.35C273.551 389 266.551 382.15 257.151 378.9C276.451 361.3 294.101 350.3 307.151 343.35C323.501 334.65 333.901 331.6 338.601 320.65C344.401 307.1 339.251 286.85 327.251 281.1C316.751 276.1 304.451 283.75 286.201 295.05Z" fill="#F7FAFC" stroke="#636E72" stroke-miterlimit="10"/>
<path opacity="0.42" d="M310.951 289.5C310.951 298.75 309.451 311.15 302.251 322.75C285.751 349.15 255.451 347.55 247.751 371.35C246.851 374.2 243.601 387.35 250.101 394.65C253.701 398.65 259.301 399.8 260.851 405.2C261.751 408.3 260.851 411.3 259.951 413.4C266.901 411.85 272.251 406.5 273.401 399.95C275.201 389.6 265.251 382.9 264.501 382.4C261.351 380.35 258.251 379.7 256.301 379.45C278.051 358.9 297.601 347.25 312.101 340.3C322.101 335.5 334.201 330.7 338.951 318.9C342.951 308.9 339.951 298.25 336.901 291.15C328.251 290.55 319.601 290.05 310.951 289.5Z" fill="#636E72"/>
<path opacity="0.5" d="M320.752 302.499C321.602 307.149 322.202 314.149 319.402 321.399C314.702 333.549 303.502 338.299 291.402 346.449C282.652 352.299 270.652 361.849 258.152 377.199C261.852 374.199 267.002 370.149 273.302 365.549C285.102 356.949 291.652 352.199 301.202 347.099C315.402 339.599 322.502 335.849 322.902 335.649C324.502 334.949 327.902 333.499 331.352 330.299C332.352 329.349 335.252 326.549 337.552 321.649C338.402 319.799 345.402 305.249 339.352 299.999C335.652 296.699 327.802 297.749 320.752 302.499Z" fill="#636E72"/>
<path d="M296.201 164.75C302.151 163.55 311.201 162.4 322.101 163.5C331.551 164.45 348.901 166.15 362.451 179.2C366.051 182.7 372.451 189 374.751 199.15C377.601 211.75 372.551 222.55 370.501 226.35C362.201 241.75 349.201 241.7 343.301 256.1C342.751 257.45 341.151 261.55 337.351 265.45C333.201 269.65 327.401 272.55 326.301 271.4C325.801 270.85 326.051 269.3 329.251 264.6C328.451 265.1 325.151 267.2 321.201 266.3C315.751 265.1 312.101 259 313.151 254.85C313.401 253.8 314.101 252.2 322.501 247.2C326.351 244.9 328.301 243.75 331.851 242.1C341.001 237.85 357.601 223.35 355.201 209.8C353.801 202 346.401 196.15 340.351 193.65C328.301 188.75 320.451 196.75 311.051 192.8C305.551 190.45 299.151 183.9 296.201 164.75Z" fill="#F7FAFC" stroke="#636E72" stroke-miterlimit="10"/>
<path opacity="0.29" d="M301.101 172.901C305.851 172.901 312.951 173.301 321.301 175.101C332.701 177.601 342.802 180.801 352.202 189.301C360.102 196.451 361.551 206.601 362.001 209.751C362.401 212.651 363.852 222.601 358.452 231.751C355.002 237.551 351.551 238.451 340.901 247.301C335.501 251.801 333.501 256.451 326.901 260.201C320.301 263.951 317.701 262.851 316.901 262.401C313.301 260.501 313.151 254.951 313.101 254.201C314.301 253.051 316.201 251.351 318.651 249.551C326.751 243.551 330.401 243.851 337.301 239.551C340.001 237.851 348.151 232.601 352.651 222.901C353.951 220.101 355.701 216.101 355.102 210.901C354.451 205.401 351.502 201.751 350.452 200.451C344.152 192.851 334.402 191.751 332.452 191.551C322.101 190.601 317.701 196.001 310.651 192.451C307.551 190.901 305.751 188.501 304.851 187.351C300.501 181.451 300.901 174.801 301.101 172.901Z" fill="#636E72"/>
<path opacity="0.24" d="M307.351 189.35C307.601 186.45 319.051 184.95 326.901 184.9C334.751 184.85 343.601 184.8 350.701 191.1C354.801 194.7 356.401 198.75 356.701 199.55C361.201 211.15 353.201 222.5 352.251 223.75C353.301 222.15 356.701 216.55 355.351 209.55C354.001 202.3 348.501 198.35 345.801 196.45C344.201 195.3 338.851 191.6 331.351 191.35C322.801 191.1 319.051 195.6 312.251 193.15C311.951 193 307.201 191.25 307.351 189.35Z" fill="#636E72"/>
<path d="M164.3 130C162.55 127.1 160.45 122.9 158.9 117.55C154.3 101.35 158.5 85.0497 160.4 85.0997C161.15 85.0997 162.1 87.6497 163.05 98.2997C164.1 94.6497 164.65 91.6497 165 89.4997C165.35 87.2497 165.55 85.3997 166.85 83.4997C167.85 81.9997 169.15 81.0497 170.1 80.4997C170.95 79.7497 171.8 78.9497 172.65 78.1997C173.55 78.9497 174.3 79.6997 174.95 80.4997C181.75 88.7997 178.1 101.5 177.1 104.65C178.25 103.9 179.7 102.75 181 101.05C183.35 98.0497 183.45 95.5997 184 95.6497C185.05 95.7497 186.35 104.5 183.25 113.25C182.3 115.95 181.15 118.05 180.25 119.5C180.05 124.5 179.95 141.9 192.35 157.9C193.5 159.35 211.05 181.4 234.6 180.3C249.95 179.6 255.2 169.95 265.4 173.9C273.3 176.95 279.05 186.15 279.25 195.7C279.5 205.65 273.7 214.9 264.55 219.2C258 219.75 248.4 219.95 237.1 218.15C224.25 216.1 197.5 211.8 182.25 191.05C175.55 181.9 172.45 171.45 171.2 166.05C171 165.15 170.85 164.5 170.6 163.3C169.05 156.05 166.95 145.3 164.3 130Z" fill="#F7FAFC" stroke="#636E72" stroke-miterlimit="10"/>
<path d="M169.699 84.3494C170.649 84.3494 170.649 82.8494 169.699 82.8494C168.749 82.8494 168.749 84.3494 169.699 84.3494Z" fill="#2D3436"/>
<path d="M169.849 80.6997C168.399 86.3997 167.599 92.1497 167.549 97.9997C167.549 98.6997 168.649 98.6997 168.699 97.9997C168.749 92.2497 169.499 86.5497 170.949 80.9997C171.099 80.2997 169.999 79.9997 169.849 80.6997Z" fill="#2D3436"/>
<path d="M174.249 80.6998C173.149 86.1498 172.499 91.6498 172.449 97.1998C172.449 97.8998 173.549 97.8998 173.599 97.1998C173.699 91.7498 174.249 86.3498 175.349 80.9998C175.449 80.2498 174.399 79.9498 174.249 80.6998Z" fill="#2D3436"/>
<path opacity="0.24" d="M159 89.8C160 89.85 159.45 99.85 161.65 112.6C164.25 127.75 169.75 138.45 172.9 146.35C178.5 160.45 189.4 187.8 214.3 199.95C239.7 212.4 267.05 202.7 275.55 199.3C275.8 200.85 276.15 204.9 274.1 209.3C272.2 213.4 269.25 215.7 267.9 216.55C265.55 217.5 262.05 218.7 257.65 219.35C250.8 220.35 245.4 219.4 240.75 218.5C225 215.4 217.1 213.9 209.75 210.6C202.1 207.2 192.3 202.8 184.1 193.05C176.1 183.6 173.65 173.9 169.35 156.7C166.65 145.95 165.35 136.85 164.65 130.4C161.8 125.65 158.15 118.1 157.15 108.35C156.15 98.85 158.05 89.8 159 89.8Z" fill="#636E72"/>
<path opacity="0.4" d="M166.55 83.7994C167.15 83.2494 167.75 82.6994 168.4 82.1494C165.35 93.9494 163.7 99.8494 163.45 99.7994C163.2 99.6994 164.2 94.3994 166.55 83.7994Z" fill="#636E72"/>
<path opacity="0.44" d="M212.449 211.849C218.749 213.549 227.699 215.199 238.449 214.599C255.749 213.649 268.749 207.399 275.649 203.399C275.449 204.999 274.749 209.299 271.299 213.249C267.349 217.799 262.399 218.899 260.849 219.149C256.049 219.299 250.849 219.199 245.299 218.749C232.349 217.649 221.249 214.849 212.449 211.849Z" fill="#636E72"/>
<path d="M288.5 233.2C303.55 224.9 327.65 212.85 358.75 202.85C407 187.35 434.45 188.9 481.7 178.9C507.85 173.4 545.9 163.1 591.05 142.2C591.15 147.6 591.4 153.15 591.85 158.95C592.8 171.7 594.55 183.45 596.65 194.1C592.15 201.8 587.6 209.55 583.1 217.25C584.45 230.55 585.75 243.85 587.1 257.15C560.05 257.75 532.35 258.75 504.05 260.35C434.35 264.25 368.25 270.9 306.05 279.5C300.2 264.1 294.35 248.65 288.5 233.2Z" fill="#2D3436"/>
<g opacity="0.28">
<g opacity="0.28">
<path opacity="0.28" d="M346.25 213.2C384.75 202.05 424.6 196.05 464.65 195.3C465.6 195.3 465.6 193.8 464.65 193.8C424.45 194.55 384.45 200.6 345.85 211.75C344.9 212 345.3 213.45 346.25 213.2Z" fill="#2D3436"/>
</g>
</g>
<g opacity="0.28">
<g opacity="0.28">
<path opacity="0.28" d="M451.25 203.699C486.5 194.799 524.7 203.199 558.6 188.249C559.5 187.849 558.7 186.549 557.85 186.949C524.1 201.849 485.9 193.399 450.85 202.249C449.9 202.499 450.3 203.949 451.25 203.699Z" fill="#2D3436"/>
</g>
</g>
<g opacity="0.28">
<g opacity="0.28">
<path opacity="0.28" d="M522.451 213.5C539.651 209.7 557.401 208.95 574.901 211.4C575.851 211.55 576.251 210.1 575.301 209.95C557.551 207.45 539.551 208.15 522.051 212.05C521.101 212.25 521.501 213.7 522.451 213.5Z" fill="#2D3436"/>
</g>
</g>
<path d="M262.3 173.1C264.75 174.65 268.85 177.65 272 182.8C276.45 190.05 279.9 203.05 272.85 212C269.05 216.8 263.6 218.75 259.85 219.5C262.45 227.8 264.9 236.9 266.85 246.7C271.5 269.7 272.5 290.45 271.95 307.7C282.55 309.55 297 310.95 314.05 309.3C329.35 307.8 342.05 304.3 351.55 300.95C349.15 258.6 339.2 227.15 331.1 207.2C328.8 201.55 311.45 159.5 296.25 161.5C291.85 162.05 289.5 166.05 279.2 169.7C272.35 172.1 266.3 172.85 262.3 173.1Z" fill="#F7FAFC" stroke="#636E72" stroke-miterlimit="10"/>
<path opacity="0.36" d="M284.801 168.351C289.701 173.901 296.551 182.551 302.651 194.301C318.451 224.601 317.801 253.101 317.051 263.901C315.751 282.501 310.651 298.051 305.301 309.651C312.501 309.001 320.351 307.951 328.751 306.351C336.901 304.801 344.401 302.951 351.151 301.001C350.701 293.351 349.701 281.501 347.401 267.201C341.951 233.301 332.951 210.151 324.351 193.251C310.101 165.401 299.901 160.651 296.501 161.851C295.951 162.051 293.451 163.151 290.651 164.701C288.151 166.051 286.201 167.351 284.801 168.351Z" fill="#636E72"/>
<path opacity="0.49" d="M318.5 184.151C320.55 200.301 322.8 213.501 324.5 222.601C330.5 254.851 335.35 267.651 330.6 285.451C328 295.251 323.5 302.651 320.15 307.351C324.15 307.101 328.7 306.601 333.6 305.601C340.55 304.201 346.5 302.151 351.3 300.101C350.3 268.951 343.95 232.251 325.05 195.851C322.95 191.801 320.75 187.901 318.5 184.151Z" fill="#636E72"/>
<path d="M263.349 234.7C262.549 242.55 262.199 251.55 262.699 261.45C263.499 276.75 266.149 289.85 269.049 300.3C274.699 300.05 283.099 299.85 293.249 300.3C315.049 301.25 325.899 304.3 335.949 305.4C366.249 308.8 375.449 293.25 409.249 288.2C424.049 286 446.599 285.35 476.149 295.2C497.199 306.65 518.199 318.15 539.249 329.6C541.199 325.55 546.349 316.35 557.099 309.85C572.299 300.6 587.799 303.35 591.499 304.1C588.499 296.3 583.749 280.65 587.699 262.05C589.099 255.5 591.249 249.95 593.449 245.5C581.149 240.35 563.799 233.85 542.449 228.3C505.399 218.6 476.599 217 447.499 215.55C392.049 212.75 350.449 217.9 339.149 219.35C308.449 223.45 282.699 229.4 263.349 234.7Z" fill="#0010F7"/>
<path opacity="0.25" d="M410.348 257C410.348 257.15 452.198 262.9 493.998 269.25C510.448 271.75 527.348 274.45 546.898 284.5C559.548 291 568.948 298.35 575.198 303.85C577.398 303.2 580.598 302.5 584.498 302.75C586.898 302.9 588.948 303.3 590.598 303.8C588.998 299.25 587.398 293.6 586.398 286.95C585.448 280.7 585.298 275.15 585.448 270.55C445.698 259.5 410.348 256.85 410.348 257Z" fill="#2D3436"/>
<path opacity="0.28" d="M262.9 254.901C266.25 260.251 269.9 263.151 272.5 264.751C281.25 270.201 289.2 268.151 310.8 270.851C315.05 271.401 318.5 271.951 320.65 272.301C302 274.151 283.3 276.001 264.65 277.801C264.2 274.501 263.8 271.001 263.5 267.351C263.15 263.001 262.95 258.801 262.9 254.901Z" fill="#2D3436"/>
<g opacity="0.28">
<g opacity="0.28">
<path opacity="0.28" d="M328.65 273.001C343.5 274.151 358.45 272.901 372.9 269.251C373.85 269.001 373.45 267.551 372.5 267.801C358.15 271.401 343.4 272.651 328.65 271.501C327.7 271.401 327.7 272.901 328.65 273.001Z" fill="#2D3436"/>
</g>
</g>
<g opacity="0.28">
<g opacity="0.28">
<path opacity="0.28" d="M386.9 269.55C403.55 268.4 420.25 269.15 436.75 271.8C437.7 271.95 438.1 270.5 437.15 270.35C420.55 267.65 403.7 266.9 386.9 268.05C385.9 268.15 385.9 269.65 386.9 269.55Z" fill="#2D3436"/>
</g>
</g>
<g opacity="0.28">
<g opacity="0.28">
<path opacity="0.28" d="M370.049 248.65C402.049 243.1 434.949 244.1 466.549 251.6C467.499 251.8 467.899 250.4 466.949 250.15C435.099 242.6 401.899 241.65 369.649 247.2C368.699 247.35 369.099 248.8 370.049 248.65Z" fill="#2D3436"/>
</g>
</g>
<g opacity="0.28">
<g opacity="0.28">
<path opacity="0.28" d="M503.098 318.251C514.498 323.251 524.748 330.501 533.198 339.601C533.848 340.301 534.898 339.25 534.248 338.55C525.698 329.35 515.348 322.001 503.848 316.951C502.948 316.551 502.198 317.851 503.098 318.251Z" fill="#2D3436"/>
</g>
</g>
<path d="M247.171 105.355C247.122 105.453 245.416 108.334 242.052 114.145C238.152 120.835 236.543 123.619 234.934 127.574C233.813 130.358 233.082 132.653 232.643 134.216C234.788 135.095 236.933 135.974 239.078 136.853C239.663 141.638 241.077 145.301 242.198 147.596C244.002 151.307 246.586 156.728 252.436 159.365C253.313 159.755 255.946 160.879 259.553 160.879C264.038 160.879 267.353 159.121 268.816 158.242C269.108 160.097 269.693 162.441 270.814 165.029C271.741 167.227 272.813 168.985 273.788 170.352C278.371 168.594 282.953 166.836 287.487 165.029C286.219 163.125 284.562 160.097 283.538 156.093C283.197 154.726 282.417 151.307 282.709 146.473C283.051 140.564 284.708 137.487 286.512 131.92C289.291 123.228 290.948 118.149 290.168 112.729C289.144 105.697 283.879 97.5906 275.787 94.6606C264.184 90.4121 252.143 98.6649 247.171 105.355Z" fill="#F7FAFC"/>
<path d="M239.079 111.02C236.056 109.848 235.374 103.89 235.959 99.9348C236.154 98.6163 236.885 94.7097 240.444 90.803C245.27 85.4802 250.389 85.529 257.799 82.3548C261.894 80.5968 267.744 77.4227 273.984 71.2697C273.058 74.0532 272.131 76.7878 271.156 79.5713C272.57 79.669 276.08 79.8155 279.736 77.7645C284.27 75.274 286.025 71.172 286.513 70C287.293 71.2208 290.51 76.5437 288.804 82.599C288.317 84.3082 287.536 85.6755 286.805 86.7498C289.34 86.0662 292.899 84.7477 295.921 81.7688C299.236 78.497 299.675 75.5182 301.04 75.6647C303.673 75.9088 304.648 86.6522 305.184 92.561C305.525 96.4677 306.062 99.2023 305.038 102.474C304.112 105.502 302.356 107.797 302.551 107.943C302.893 108.139 307.816 100.032 309.181 100.667C310.01 101.058 308.548 104.183 308.012 110.092C307.378 117.319 308.84 118.687 307.524 123.814C306.744 126.793 305.623 128.893 304.404 131.286C302.893 134.069 301.04 137.585 297.628 140.711C294.459 143.641 290.559 147.205 285.733 146.522C279.444 145.594 276.519 138.122 276.324 137.585C276.86 137.585 281.687 137.341 284.075 133.63C287.098 128.893 284.075 121.861 280.614 120.689C278.079 119.81 276.08 122.398 273.692 121.177C271.742 120.201 271.498 117.808 270.718 115.561C269.694 112.583 267.451 108.627 261.943 104.623C258.481 104.476 253.363 104.769 248.049 107.26C243.369 109.36 241.37 111.899 239.079 111.02Z" fill="#0010F7"/>
<path d="M238.64 119.37C236.105 123.277 234.008 127.428 232.546 131.872C232.205 132.897 231.62 133.972 232.351 134.851C232.887 135.485 234.204 135.681 234.935 135.974C236.154 136.413 237.372 136.902 238.591 137.341C239.469 137.683 239.859 136.267 238.981 135.925C238.152 135.632 237.372 135.339 236.543 134.997C236.056 134.802 234.447 134.46 234.106 134.069C233.082 133.044 234.545 130.504 234.983 129.43C236.3 126.158 237.957 123.082 239.907 120.103C240.443 119.322 239.176 118.589 238.64 119.37Z" fill="#111314"/>
<path d="M238.298 136.804C240.979 146.18 244.343 156.63 253.898 161.074C254.727 161.465 255.507 160.195 254.629 159.804C245.464 155.507 242.295 145.447 239.712 136.413C239.419 135.485 238.005 135.876 238.298 136.804Z" fill="#111314"/>
<path d="M254.143 161.221C262.674 163.125 272.229 158.535 277.933 152.431C278.567 151.747 277.543 150.721 276.909 151.405C271.547 157.119 262.528 161.611 254.533 159.804C253.607 159.56 253.217 160.976 254.143 161.221Z" fill="#111314"/>
<path d="M268.134 158.584C268.719 162.881 270.279 166.739 272.96 170.157C273.545 170.89 274.569 169.864 273.984 169.132C271.595 166.055 270.133 162.442 269.597 158.584C269.499 157.656 268.037 157.656 268.134 158.584Z" fill="#111314"/>
<path d="M282.076 152.284C282.368 157.119 284.123 161.514 287.243 165.225C287.828 165.957 288.901 164.883 288.267 164.199C285.391 160.781 283.782 156.728 283.49 152.284C283.441 151.356 281.978 151.356 282.076 152.284Z" fill="#111314"/>
<path d="M274.861 123.082C276.275 120.933 278.956 120.64 281.053 122.007C282.954 123.228 283.88 125.572 284.026 127.721C284.27 131.188 282.028 138.22 277.153 136.12C276.275 135.729 275.544 136.999 276.421 137.39C282.759 140.124 286.123 131.774 285.391 126.744C284.953 123.863 283.295 121.031 280.419 120.054C277.835 119.126 275.154 120.103 273.643 122.349C273.058 123.13 274.325 123.863 274.861 123.082Z" fill="#111314"/>
<path d="M269.449 160.537C272.277 158.73 274.714 156.533 276.811 153.944C277.396 153.212 276.372 152.186 275.787 152.919C273.788 155.409 271.399 157.558 268.718 159.316C267.938 159.804 268.669 161.074 269.449 160.537Z" fill="#111314"/>
<path d="M242.784 146.473C246.147 146.766 249.511 145.545 251.851 143.055C253.362 141.394 253.947 138.611 250.876 138.708C250.096 138.757 249.852 139.929 250.681 140.124C251.802 140.417 252.729 140.857 253.655 141.638C254.386 142.224 255.41 141.199 254.679 140.613C253.557 139.685 252.485 139.099 251.071 138.757C251.022 139.245 250.925 139.734 250.876 140.173C252.534 140.124 250.34 142.517 250.145 142.713C249.365 143.396 248.536 143.885 247.61 144.275C246.05 144.959 244.49 145.154 242.784 145.008C241.857 144.959 241.857 146.424 242.784 146.473Z" fill="#111314"/>
<path d="M249.218 124.4C248.39 122.935 248.097 121.324 248.487 119.712C248.146 119.859 247.756 120.005 247.415 120.152C248.731 121.177 248.438 123.082 248.243 124.498C248.682 124.449 249.121 124.4 249.56 124.303C248.975 123.472 248.682 122.593 248.682 121.568C248.682 120.64 247.22 120.64 247.22 121.568C247.22 122.838 247.561 124.01 248.292 125.035C248.633 125.475 249.511 125.523 249.608 124.84C249.95 122.642 250.047 120.347 248.097 118.833C247.707 118.54 247.122 118.833 247.025 119.273C246.537 121.275 246.83 123.326 247.902 125.084C248.438 125.963 249.706 125.23 249.218 124.4Z" fill="#111314"/>
<path d="M246.293 114.048C248.682 111.215 252.143 113.364 253.41 116.05C253.8 116.88 255.068 116.147 254.678 115.317C253.02 111.801 248.243 109.555 245.269 113.022C244.635 113.755 245.659 114.78 246.293 114.048Z" fill="#111314"/>
<path opacity="0.07" d="M269.791 113.218C269.986 114.341 270.23 116.099 270.62 118.15C271.693 123.961 272.619 127.282 272.96 128.844C274.228 134.802 272.57 143.983 266.525 149.989C259.847 156.581 250.73 156.435 248.439 156.337C249.463 157.558 251.071 159.121 253.411 160.146C260.529 163.272 267.744 158.73 268.524 158.193C268.426 161.367 269.109 162.442 269.791 162.783C271.888 163.711 276.568 159.365 278.615 154.677C280.809 149.598 279.688 144.715 279.103 142.713C276.373 138.953 276.226 137.634 276.616 137.195C277.201 136.56 278.81 137.732 280.614 137.097C282.515 136.365 283.295 134.069 283.783 132.653C284.416 130.749 286.123 125.572 282.954 122.545C280.955 120.64 277.689 120.298 274.618 121.373C273.984 121.275 273.155 120.982 272.521 120.298C271.693 119.419 271.693 118.394 271.254 116.636C270.961 115.757 270.571 114.585 269.791 113.218Z" fill="#111314"/>
<path opacity="0.1" d="M276.617 146.229C276.227 150.429 275.203 153.847 274.276 156.338C275.983 155.849 277.738 155.312 279.444 154.824C280.907 158.682 282.32 162.588 283.783 166.446C284.855 165.909 285.879 165.372 286.952 164.786C285.733 162.051 284.514 158.682 283.539 154.775C282.71 151.454 282.272 148.378 282.028 145.741C281.199 144.911 280.224 143.885 279.347 142.567C277.835 140.369 276.958 138.318 276.422 136.707C276.714 139.197 276.958 142.469 276.617 146.229Z" fill="#111314"/>
<path opacity="0.13" d="M304.208 84.9917C303.526 84.9917 303.964 91.7307 301.088 99.9347C299.869 103.402 297.627 109.555 291.874 114.731C287.779 118.394 283.538 120.201 280.857 121.08C281.588 121.519 282.758 122.349 283.636 123.765C285.781 127.184 284.416 131.042 284.026 132.165C283.489 133.727 282.758 135.778 280.711 136.853C278.809 137.829 276.859 137.439 276.177 137.243C276.323 137.683 279.394 145.789 285.781 146.473C288.462 146.766 290.656 145.594 292.313 144.715C296.652 142.469 298.846 139.099 301.527 134.948C305.086 129.43 307.572 125.523 307.913 120.005C308.157 115.659 306.841 114.536 307.767 110.385C308.059 109.067 308.839 106.43 308.693 102.767C308.644 101.986 308.596 101.351 308.547 100.911C306.548 103.207 304.549 105.551 302.551 107.846C303.233 106.527 304.111 104.476 304.696 101.839C305.329 98.958 305.232 96.7117 305.086 93.0004C305.037 90.9005 304.842 84.9917 304.208 84.9917Z" fill="#111314"/>
</svg>
